<svg width="32" height="11" fill="none" xmlns="http://www.w3.org/2000/svg"><path d="M31.3 5.5v.002a.614.614 0 0 1-.034.205.545.545 0 0 1-.14.207l-4.1 4.236a.624.624 0 0 1-.867.022.611.611 0 0 1-.023-.847L31.3 5.5Zm0 0a.59.59 0 0 0-.053-.227.637.637 0 0 0-.12-.185m.173.412-.173-.412m0 0L27.025.85l-.001-.001a.624.624 0 0 0-.862-.025c-.245.215-.248.622-.026.85l3.129 3.227H1.2a.606.606 0 0 0-.612.599c0 .333.277.598.612.598h28.065l-3.129 3.227 4.991-4.237Z" fill="#524EB7" stroke="#524EB7" stroke-width=".2"/></svg>