<svg width="1920" height="993" fill="none" xmlns="http://www.w3.org/2000/svg"><path d="M-161.447 87.428c25.579 123.436 227.174 185.615 427.921 112.059 200.747-73.556 376.736 207.361 425.138 280.941 48.403 73.579 170.098 106.718 313.428 39.66 143.33-67.057 281.99 46.441 427.39 135.83 145.4 89.389 439.03 172.839 490.39 211.925" stroke="url('#paint0_linear_726_1206')" stroke-width="3" stroke-linecap="round"/><path d="M-105.116 904.695c25.58-123.437 227.174-185.615 427.921-112.059 200.747 73.556 376.736-207.361 425.138-280.941 48.403-73.58 170.098-106.718 313.427-39.661 143.33 67.057 281.99-46.441 427.39-135.83 145.41-89.389 439.03-172.839 490.39-211.925" stroke="url('#paint1_linear_726_1206')" stroke-width="3" stroke-linecap="round"/><path d="M1936.15 776.668c-92.74 85.391-350.14-274.294-552.62-89.912-202.49 184.383-375.68-1.235-440.68-157.327-65.001-156.092-574.245-5.745-574.627-178.746C367.84 177.682 3.22 249.39-212.34 195.971" stroke="url('#paint2_linear_726_1206')" stroke-width="4" stroke-linecap="round"/><path d="M1936.15 306.455c-92.74-85.392-350.14 274.294-552.62 89.911-202.49-184.382-375.68 1.236-440.68 157.328-65.001 156.092-574.245 5.745-574.627 178.746-.383 173-365.003 101.293-580.563 154.711" stroke="url('#paint3_linear_726_1206')" stroke-width="4" stroke-linecap="round"/><defs><linearGradient id="paint0_linear_726_1206" x1="2076.63" y1="518.843" x2="-269.911" y2="291.759" gradientUnits="userSpaceOnUse"><stop stop-color="#1F94F3"/><stop offset=".17" stop-color="#795549"/><stop offset=".375" stop-color="#4AAE4E"/><stop offset=".518" stop-color="#F34334"/><stop offset=".67" stop-color="#9A26AF"/><stop offset=".829" stop-color="#01BBD4"/><stop offset="1" stop-color="#FD5621"/></linearGradient><linearGradient id="paint1_linear_726_1206" x1="2132.96" y1="473.28" x2="-213.58" y2="700.364" gradientUnits="userSpaceOnUse"><stop stop-color="#1F94F3"/><stop offset=".17" stop-color="#795549"/><stop offset=".375" stop-color="#4AAE4E"/><stop offset=".518" stop-color="#F34334"/><stop offset=".67" stop-color="#9A26AF"/><stop offset=".829" stop-color="#01BBD4"/><stop offset="1" stop-color="#FD5621"/></linearGradient><linearGradient id="paint2_linear_726_1206" x1="-133.905" y1="-177.267" x2="1905.18" y2="1005.92" gradientUnits="userSpaceOnUse"><stop stop-color="#F34334"/><stop offset=".17" stop-color="#FFE93B"/><stop offset=".518" stop-color="#5F7C8A"/><stop offset=".829" stop-color="#9A26AF"/><stop offset="1" stop-color="#019587"/></linearGradient><linearGradient id="paint3_linear_726_1206" x1="-133.905" y1="1260.39" x2="1905.18" y2="77.201" gradientUnits="userSpaceOnUse"><stop stop-color="#F34334"/><stop offset=".17" stop-color="#FFE93B"/><stop offset=".518" stop-color="#5F7C8A"/><stop offset=".829" stop-color="#9A26AF"/><stop offset="1" stop-color="#019587"/></linearGradient></defs></svg>