<svg width="3529" height="2340" fill="none" xmlns="http://www.w3.org/2000/svg"><g opacity=".5" stroke-linecap="round"><path d="M3231.87-140.006c-163.3-81.938-482.52 163.876-656.44 541.293-173.92 377.417-693.44 370.119-832.42 371.716-138.97 1.597-327 154.29-435.73 437.997-108.72 283.7-403.448 383.52-681.032 517.21-277.583 133.69-734.978 498.68-841.007 538.55" stroke="url('#paint0_linear_1068_262')" stroke-width="3"/><path d="M32.836 2379.7c25.7-224.68 731.17-264.12 789.493-752.68 58.322-488.57 473.061-570.32 720.561-516.38 247.51 53.93 727.21-867.991 911.54-699.194 184.33 168.796 565.99-456.115 893.44-731.752" stroke="url('#paint1_linear_1068_262')" stroke-width="4"/></g><defs><linearGradient id="paint0_linear_1068_262" x1="-37.022" y1="2842.45" x2="3487.25" y2="-102.598" gradientUnits="userSpaceOnUse"><stop stop-color="#1F94F3"/><stop offset=".17" stop-color="#795549"/><stop offset=".375" stop-color="#4AAE4E"/><stop offset=".518" stop-color="#F34334"/><stop offset=".67" stop-color="#9A26AF"/><stop offset=".829" stop-color="#01BBD4"/><stop offset="1" stop-color="#FD5621"/></linearGradient><linearGradient id="paint1_linear_1068_262" x1="3646.02" y1="164.442" x2="-390.699" y2="888.725" gradientUnits="userSpaceOnUse"><stop stop-color="#F34334"/><stop offset=".17" stop-color="#FFE93B"/><stop offset=".518" stop-color="#5F7C8A"/><stop offset=".829" stop-color="#9A26AF"/><stop offset="1" stop-color="#019587"/></linearGradient></defs></svg>