<svg width="1920" height="618" fill="none" xmlns="http://www.w3.org/2000/svg"><path d="M2013.43 724.794c-92.33 85.822-292.69 19.776-413.76-156.44s-427.22-49.103-509.29-17.145c-82.07 31.959-200.476-11.495-278.499-149.164-78.022-137.67-256.787-125.429-427.095-136.753-170.307-11.324-458.014-113.32-522.519-111.195" stroke="url('#paint0_linear_731_562')" stroke-width="3" stroke-linecap="round"/><path d="M-89.583 364.4c56.655-112.61 267.473-120.494 442.342 2.513C527.628 489.92 770.327 264.124 836.125 205.579c65.797-58.545 191.925-59.057 313.015 42.812 121.09 101.869 284.39 28.125 447.98-20.585 163.59-48.71 468.8-53.321 528.53-77.783" stroke="url('#paint1_linear_731_562')" stroke-width="3" stroke-linecap="round"/><path d="M-95.803 72.046c26.153 123.316 444.294-20.87 502.601 246.706 58.308 267.576 306.993 216.538 450.376 126.921C1000.56 356.056 1328.67 773.521 1429.16 632.7c100.49-140.821 356.23 128.783 562.91 210.058" stroke="url('#paint2_linear_731_562')" stroke-width="4" stroke-linecap="round"/><path d="M2036.97 314.861c-67.47-106.482-409.2 174.327-557.06-56.18-147.86-230.506-363.19-96.038-466.38 37.911-103.186 133.95-556.165-143.076-601.311 23.931-45.145 167.007-378.781 3.372-600.822-.82" stroke="url('#paint3_linear_731_562')" stroke-width="4" stroke-linecap="round"/><defs><linearGradient id="paint0_linear_731_562" x1="-61.033" y1="-219.502" x2="1983.53" y2="954.189" gradientUnits="userSpaceOnUse"><stop stop-color="#1F94F3"/><stop offset=".17" stop-color="#795549"/><stop offset=".375" stop-color="#4AAE4E"/><stop offset=".518" stop-color="#F34334"/><stop offset=".67" stop-color="#9A26AF"/><stop offset=".829" stop-color="#01BBD4"/><stop offset="1" stop-color="#FD5621"/></linearGradient><linearGradient id="paint1_linear_731_562" x1="2183.89" y1="526.941" x2="-141.467" y2="138.958" gradientUnits="userSpaceOnUse"><stop stop-color="#1F94F3"/><stop offset=".17" stop-color="#795549"/><stop offset=".375" stop-color="#4AAE4E"/><stop offset=".518" stop-color="#F34334"/><stop offset=".67" stop-color="#9A26AF"/><stop offset=".829" stop-color="#01BBD4"/><stop offset="1" stop-color="#FD5621"/></linearGradient><linearGradient id="paint2_linear_731_562" x1="2144.26" y1="493.047" x2="-203.313" y2="276.881" gradientUnits="userSpaceOnUse"><stop stop-color="#F34334"/><stop offset=".17" stop-color="#FFE93B"/><stop offset=".518" stop-color="#5F7C8A"/><stop offset=".829" stop-color="#9A26AF"/><stop offset="1" stop-color="#019587"/></linearGradient><linearGradient id="paint3_linear_731_562" x1="-209.443" y1="700.523" x2="2066.39" y2="85.406" gradientUnits="userSpaceOnUse"><stop stop-color="#F34334"/><stop offset=".17" stop-color="#FFE93B"/><stop offset=".518" stop-color="#5F7C8A"/><stop offset=".829" stop-color="#9A26AF"/><stop offset="1" stop-color="#019587"/></linearGradient></defs></svg>