<svg width="1920" height="960" fill="none" xmlns="http://www.w3.org/2000/svg"><g opacity=".5" stroke-linecap="round"><path d="M2068.37 49.154c-16.21 135.293-227.61 220.787-450.58 160.013-222.97-60.773-386.7 257.953-432.07 341.648-45.37 83.694-173.39 130.568-333.922 71.518-160.532-59.051-299.436 75.93-447.825 185.566C255.583 917.535-52.986 1034.4-104.709 1081.21" stroke="url('#paint0_linear_1013_15')" stroke-width="3"/><path d="M-75.135 881.053c107.72 83.447 351.897-327.596 586.92-147.62 235.023 179.977 404.496-35.853 460.16-209.941 55.665-174.088 617.945-58.958 602.465-245.318-15.49-186.36 383.8-142.637 611.06-219.98" stroke="url('#paint1_linear_1013_15')" stroke-width="4"/></g><defs><linearGradient id="paint0_linear_1013_15" x1="-302.438" y1="719.465" x2="2203.97" y2="259.255" gradientUnits="userSpaceOnUse"><stop stop-color="#1F94F3"/><stop offset=".17" stop-color="#795549"/><stop offset=".375" stop-color="#4AAE4E"/><stop offset=".518" stop-color="#F34334"/><stop offset=".67" stop-color="#9A26AF"/><stop offset=".829" stop-color="#01BBD4"/><stop offset="1" stop-color="#FD5621"/></linearGradient><linearGradient id="paint1_linear_1013_15" x1="2066.69" y1="-336.583" x2="-20.718" y2="1125.12" gradientUnits="userSpaceOnUse"><stop stop-color="#F34334"/><stop offset=".17" stop-color="#FFE93B"/><stop offset=".518" stop-color="#5F7C8A"/><stop offset=".829" stop-color="#9A26AF"/><stop offset="1" stop-color="#019587"/></linearGradient></defs></svg>