<svg width="1920" height="924" fill="none" xmlns="http://www.w3.org/2000/svg"><path d="M1941 50.428c-25.58 123.436-227.18 185.615-427.92 112.059-200.75-73.556-376.74 207.361-425.14 280.941-48.4 73.579-170.098 106.718-313.429 39.66-143.33-67.057-281.985 46.441-427.389 135.83-145.405 89.389-439.027 172.839-490.386 211.925" stroke="url('#paint0_linear_726_2316')" stroke-width="3" stroke-linecap="round"/><path d="M-100.262 648.668c92.731 85.391 350.135-274.294 552.619-89.912 202.483 184.383 375.675-1.235 440.676-157.327 65.002-156.092 574.247-5.745 574.627-178.746.38-173 303.78 142.736 519.34 89.317" stroke="url('#paint1_linear_726_2316')" stroke-width="4" stroke-linecap="round"/><defs><linearGradient id="paint0_linear_726_2316" x1="-297.075" y1="481.843" x2="2049.46" y2="254.759" gradientUnits="userSpaceOnUse"><stop stop-color="#1F94F3"/><stop offset=".17" stop-color="#795549"/><stop offset=".375" stop-color="#4AAE4E"/><stop offset=".518" stop-color="#F34334"/><stop offset=".67" stop-color="#9A26AF"/><stop offset=".829" stop-color="#01BBD4"/><stop offset="1" stop-color="#FD5621"/></linearGradient><linearGradient id="paint1_linear_726_2316" x1="1969.79" y1="-305.267" x2="-69.296" y2="877.921" gradientUnits="userSpaceOnUse"><stop stop-color="#F34334"/><stop offset=".17" stop-color="#FFE93B"/><stop offset=".518" stop-color="#5F7C8A"/><stop offset=".829" stop-color="#9A26AF"/><stop offset="1" stop-color="#019587"/></linearGradient></defs></svg>