<svg width="1920" height="961" fill="none" xmlns="http://www.w3.org/2000/svg"><path d="M2011 87.428c-25.58 123.436-227.18 185.615-427.92 112.059-200.75-73.556-376.74 207.361-425.14 280.941-48.4 73.579-170.098 106.718-313.429 39.66-143.33-67.057-281.985 46.441-427.389 135.83C271.717 745.307-21.905 828.757-73.264 867.843" stroke="url('#paint0_linear_726_34')" stroke-width="3" stroke-linecap="round"/><path d="M-30.262 685.668c92.73 85.391 350.135-274.294 552.619-89.912 202.483 184.383 375.674-1.235 440.676-157.327 64.997-156.092 574.247-5.745 574.627-178.746.38-173 365-101.293 580.56-154.712" stroke="url('#paint1_linear_726_34')" stroke-width="4" stroke-linecap="round"/><defs><linearGradient id="paint0_linear_726_34" x1="-227.075" y1="518.843" x2="2119.46" y2="291.759" gradientUnits="userSpaceOnUse"><stop stop-color="#1F94F3"/><stop offset=".17" stop-color="#795549"/><stop offset=".375" stop-color="#4AAE4E"/><stop offset=".518" stop-color="#F34334"/><stop offset=".67" stop-color="#9A26AF"/><stop offset=".829" stop-color="#01BBD4"/><stop offset="1" stop-color="#FD5621"/></linearGradient><linearGradient id="paint1_linear_726_34" x1="2039.79" y1="-268.267" x2=".703" y2="914.921" gradientUnits="userSpaceOnUse"><stop stop-color="#F34334"/><stop offset=".17" stop-color="#FFE93B"/><stop offset=".518" stop-color="#5F7C8A"/><stop offset=".829" stop-color="#9A26AF"/><stop offset="1" stop-color="#019587"/></linearGradient></defs></svg>