<svg width="0" height="0" class="hidden">
    <symbol fill="none" xmlns="http://www.w3.org/2000/svg" viewBox="0 0 70 70" id="agency">
        <path d="M69.9303 64.5199V24.0299C69.9303 23.2564 69.3037 22.6299 68.5303 22.6299C67.7577 22.6299 67.1303 23.2564 67.1303 24.0299V64.5199C67.1287 65.923 65.9912 67.0597 64.5873 67.0613H5.41331C4.00941 67.0597 2.87191 65.923 2.87031 64.5199V24.0299C2.87031 23.2564 2.24297 22.6299 1.47031 22.6299C0.696872 22.6299 0.0703125 23.2564 0.0703125 24.0299V64.5199C0.0718751 65.9363 0.635153 67.2941 1.63671 68.2957C2.63827 69.2972 3.99691 69.8597 5.41331 69.8613H64.5873C66.0037 69.8597 67.3623 69.2972 68.3639 68.2957C69.3655 67.2941 69.9287 65.9363 69.9303 64.5199Z" fill="#524EB7"></path>
        <path d="M69.9309 5.94977C69.9293 4.40915 69.3168 2.93257 68.2278 1.84277C67.1387 0.753707 65.6614 0.141208 64.1216 0.139648H5.88159C4.34174 0.141211 2.86439 0.753707 1.77539 1.84277C0.686327 2.93261 0.0738256 4.40917 0.0722656 5.94977V19.3662C0.0722656 19.738 0.219143 20.0935 0.481647 20.3568C0.744147 20.6193 1.10041 20.7662 1.47227 20.7662H68.5323H68.5315C68.9034 20.7662 69.2596 20.6193 69.5221 20.3568C69.7846 20.0935 69.9315 19.738 69.9315 19.3662L69.9309 5.94977ZM67.1309 17.967L2.87091 17.9662V5.94979C2.87169 5.15135 3.18887 4.38651 3.75373 3.82239C4.31779 3.25833 5.08262 2.94035 5.88032 2.93957H64.1203C64.918 2.94035 65.6828 3.25753 66.2469 3.82239C66.8118 4.38645 67.129 5.15129 67.1297 5.94979L67.1309 17.967Z" fill="#524EB7"></path>
        <path d="M37.4 28.9938H59.342C60.1154 28.9938 60.742 28.3665 60.742 27.5938C60.742 26.8204 60.1154 26.1938 59.342 26.1938H37.4C36.6266 26.1938 36 26.8204 36 27.5938C36 28.3665 36.6266 28.9938 37.4 28.9938Z" fill="#524EB7"></path>
        <path d="M8.73789 47.2336H30.6799C31.4533 47.2336 32.0799 46.607 32.0799 45.8336C32.0799 45.0602 31.4533 44.4336 30.6799 44.4336H8.73789C7.96445 44.4336 7.33789 45.0602 7.33789 45.8336C7.33789 46.607 7.96445 47.2336 8.73789 47.2336Z" fill="#524EB7"></path>
        <path d="M8.73789 53.1315H30.6799C31.4533 53.1315 32.0799 52.5042 32.0799 51.7315C32.0799 50.9581 31.4533 50.3315 30.6799 50.3315H8.73789C7.96445 50.3315 7.33789 50.9581 7.33789 51.7315C7.33789 52.5042 7.96445 53.1315 8.73789 53.1315Z" fill="#524EB7"></path>
        <path d="M8.73789 59.0275H30.6799C31.4533 59.0275 32.0799 58.401 32.0799 57.6275C32.0799 56.8549 31.4533 56.2275 30.6799 56.2275H8.73789C7.96445 56.2275 7.33789 56.8549 7.33789 57.6275C7.33789 58.401 7.96445 59.0275 8.73789 59.0275Z" fill="#524EB7"></path>
        <path d="M37.4 35.1657H59.342C60.1154 35.1657 60.742 34.5384 60.742 33.7657C60.742 32.9923 60.1154 32.3657 59.342 32.3657H37.4C36.6266 32.3657 36 32.9923 36 33.7657C36 34.5384 36.6266 35.1657 37.4 35.1657Z" fill="#524EB7"></path>
        <path d="M36 57.6277C36 57.9988 36.1469 58.3551 36.4094 58.6176C36.6727 58.8801 37.0281 59.0277 37.4 59.0277H59.342C59.7131 59.0277 60.0693 58.8801 60.3318 58.6176C60.5943 58.3551 60.742 57.9988 60.742 57.6277V40.3487C60.742 39.9776 60.5944 39.6214 60.3318 39.3589C60.0693 39.0964 59.7131 38.9487 59.342 38.9487H37.4C37.0281 38.9487 36.6727 39.0964 36.4094 39.3589C36.1469 39.6214 36 39.9777 36 40.3487V57.6277ZM38.8 41.7487H57.9414V56.2277H38.8V41.7487Z" fill="#524EB7"></path>
        <path d="M8.73789 40.2396H30.6799C31.051 40.2396 31.4072 40.0927 31.6697 39.8302C31.9322 39.5669 32.0799 39.2114 32.0799 38.8396V26.36C32.0799 25.9889 31.9322 25.6326 31.6697 25.3701C31.4072 25.1076 31.051 24.96 30.6799 24.96H8.73789C8.36601 24.96 8.01055 25.1076 7.74727 25.3701C7.48477 25.6326 7.33789 25.9889 7.33789 26.36V38.8396C7.33789 39.2114 7.48476 39.5669 7.74727 39.8302C8.01055 40.0927 8.36603 40.2396 8.73789 40.2396ZM10.1379 27.76H29.2793V37.4396H10.1379V27.76Z" fill="#524EB7"></path>
        <path d="M27.6969 9.49756H9.59531C8.82265 9.49756 8.19531 10.1241 8.19531 10.8976C8.19531 11.6702 8.82265 12.2976 9.59531 12.2976H27.6969C28.4704 12.2976 29.0969 11.6702 29.0969 10.8976C29.0969 10.1241 28.4704 9.49756 27.6969 9.49756Z" fill="#524EB7"></path>
        <path d="M38.4625 9.49756H34.0055C33.2328 9.49756 32.6055 10.1241 32.6055 10.8976C32.6055 11.6702 33.2328 12.2976 34.0055 12.2976H38.4625C39.2359 12.2976 39.8625 11.6702 39.8625 10.8976C39.8625 10.1241 39.2359 9.49756 38.4625 9.49756Z" fill="#524EB7"></path>
        <path d="M49.4326 9.49756H44.9771C44.2037 9.49756 43.5771 10.1241 43.5771 10.8976C43.5771 11.6702 44.2037 12.2976 44.9771 12.2976H49.4334H49.4326C50.206 12.2976 50.8326 11.6702 50.8326 10.8976C50.8326 10.1241 50.206 9.49756 49.4326 9.49756H49.4326Z" fill="#524EB7"></path>
        <path d="M60.4039 9.49756H55.9469C55.1734 9.49756 54.5469 10.1241 54.5469 10.8976C54.5469 11.6702 55.1734 12.2976 55.9469 12.2976H60.4039C61.1765 12.2976 61.8039 11.6702 61.8039 10.8976C61.8039 10.1241 61.1765 9.49756 60.4039 9.49756Z" fill="#524EB7"></path>
    </symbol>
    <symbol fill="none" xmlns="http://www.w3.org/2000/svg" viewBox="0 0 118 120" id="audit">
        <path d="M38.5831 64.3157C53.5874 61.5712 65.1148 48.3964 65.1148 32.4764C65.1148 14.5443 50.6592 0.0891113 32.7276 0.0891113C14.9782 0.271635 0.522949 14.7274 0.522949 32.4764C0.522949 48.3956 12.0508 61.5695 27.0546 64.3157V75.8435H22.114V109.146C22.114 115.002 26.8711 119.942 32.9102 119.942C38.7658 119.942 43.7064 115.185 43.7064 109.146V75.8435H38.7658V64.3157H38.5831ZM3.26702 32.4764C3.26702 16.1912 16.6244 2.83318 32.9102 2.83318C49.1954 2.83318 62.5534 16.1906 62.5534 32.4764C62.5534 48.7615 49.196 62.1196 32.9102 62.1196C16.4417 62.1196 3.26702 48.9448 3.26702 32.4764ZM40.7771 78.5882V109.147C40.7771 113.538 37.1176 117.198 32.7263 117.198C28.3349 117.198 24.6754 113.538 24.6754 109.147L24.6746 78.5882H29.6152V64.6816C30.7128 64.865 31.6279 64.865 32.7257 64.865C33.8234 64.865 34.7384 64.865 35.8361 64.6816V78.5882H40.7771Z" fill="#524EB7"></path>
        <path d="M31.4468 107.499H34.1913V110.243H31.4468V107.499Z" fill="#524EB7"></path>
        <path d="M31.4468 94.6895H34.1913V97.434H31.4468V94.6895Z" fill="#524EB7"></path>
        <path d="M31.4468 101.093H34.1913V103.838H31.4468V101.093Z" fill="#524EB7"></path>
        <path d="M112.325 103.289V46.7489H101.346V103.289H97.1376V64.6788H86.159V103.104H81.9503V74.1939H70.9717V103.287H67.1287V84.4399H56.1501V103.104H51.2095V105.848H117.449V103.104H112.326L112.325 103.289ZM58.8941 103.289V87.3699H64.384V103.289H58.8941ZM73.8984 103.289V76.9401H79.3882V103.289H73.8984ZM89.0859 103.289V67.425H94.5758V103.106H89.0859V103.289ZM104.091 103.289V49.493H109.581V103.289H104.091Z" fill="#524EB7"></path>
        <path d="M38.2156 52.4217C40.0458 51.8725 41.6927 51.1408 43.3395 50.2256L47.7309 53.1534L53.7691 47.1152L50.6587 42.9065C51.5738 41.2596 52.3055 39.6128 52.8548 37.7826L57.9787 36.8675V28.2674L52.8548 27.3523C52.3056 25.5221 51.5738 23.8753 50.6587 22.2284L53.5865 17.8371L47.5482 11.7988L43.3395 14.7266C41.5093 13.8123 39.6801 13.0806 37.8497 12.5314L36.9346 7.40747H28.3345L27.4194 12.5314C25.5892 13.0806 23.9424 13.8123 22.2955 14.7275L17.9042 11.7997L12.0494 18.0212L14.9772 22.2299C14.0621 23.8768 13.3304 25.5237 12.7811 27.3538L7.65723 28.2689V36.869L12.7811 37.7841C13.3303 39.6143 14.0621 41.2611 14.9772 42.908L12.0494 47.2993L18.0877 53.3376L22.2964 50.4098C23.9432 51.3249 25.5901 52.0566 27.4203 52.6059L28.3354 57.7298H36.9354L38.2156 52.4217ZM35.8371 50.2256L34.922 54.9827H30.8966L29.9815 50.4081L29.0672 50.043C26.8711 49.6771 25.0418 48.7621 23.2116 47.6645L22.4799 47.1153L18.6369 49.8598L15.7091 47.1153L18.4536 43.2723L17.9044 42.5405C16.8068 40.7103 15.8917 38.6976 15.3426 36.685L15.1592 35.7699L10.4021 34.8548V30.8294L14.9768 29.9142L15.1601 28.9991C15.526 26.9864 16.4411 24.9737 17.5387 23.1436L18.0879 22.4118L15.5267 18.204L18.2712 15.2762L22.1141 18.0207L22.8459 17.4715C24.6761 16.1905 26.6889 15.4587 28.7015 14.9096L29.6166 14.7263L30.5317 9.96917H34.5571L35.4722 14.5438L36.3873 14.7272C38.5834 15.0931 40.596 16.0081 42.2429 17.1057L42.9746 17.6549L46.9992 15.2764L49.7437 18.0209L46.9992 22.0463L47.5484 22.778C48.8293 24.6083 49.5611 26.621 50.1102 28.6336L50.2936 29.5487L55.0507 30.4638V34.4892L50.476 35.4043L50.2927 36.3194C49.9268 38.5156 49.0117 40.5282 47.9141 42.175L47.3649 42.9068L50.1094 46.7497L47.3649 49.4942L43.3395 46.9324L42.6077 47.4816C40.7775 48.5792 38.7648 49.4943 36.7522 50.0435L35.8371 50.2256Z" fill="#524EB7"></path>
        <path d="M32.7276 21.3142C26.506 21.3142 21.5654 26.4381 21.5654 32.4763C21.5654 38.6979 26.6893 43.6385 32.7276 43.6385C38.9491 43.6385 43.8897 38.5146 43.8897 32.4763C43.8897 26.4373 38.9491 21.3142 32.7276 21.3142ZM32.9101 41.0756V42.539V41.0756C28.153 41.0756 24.4933 37.2326 24.4933 32.6588C24.4933 28.0841 28.1528 24.242 32.9101 24.242C37.4847 24.242 41.3269 28.085 41.3269 32.6588C41.3277 37.2334 37.4847 40.8931 32.9101 41.0756Z" fill="#524EB7"></path>
    </symbol>
    <symbol fill="none" xmlns="http://www.w3.org/2000/svg" viewBox="0 0 120 114" id="certificate">
        <path d="M50.8664 63.3647C52.6934 63.1817 54.1544 62.086 55.0677 60.4421C55.7982 59.1634 55.9812 57.5195 55.616 56.0585C55.4329 55.3281 55.0677 54.7798 54.7025 54.2316C56.7117 53.3181 57.9904 51.3089 57.9904 48.9346C57.9904 46.5602 56.5295 44.551 54.7025 43.6376C55.9812 41.8107 56.1634 39.4364 55.0677 37.4271C53.972 35.4179 51.7798 34.3222 49.5876 34.5045C49.5876 33.774 49.5876 33.2258 49.4045 32.4953C49.0393 31.0344 47.9436 29.7557 46.6649 29.0244C44.6557 27.9287 42.0983 28.1109 40.4544 29.2075C39.5409 27.1983 37.5318 25.7366 35.1574 25.7366C32.7831 25.7366 30.7738 27.1975 29.8605 29.0245C28.0335 27.7458 25.4768 27.5636 23.6499 28.6592C21.6407 29.7549 20.545 32.1301 20.7273 34.1394C18.5351 33.9564 16.3437 35.0529 15.2472 37.062C14.1515 39.0712 14.3337 41.4456 15.6124 43.2725C13.6032 44.186 12.3245 46.1952 12.3245 48.5695C12.3245 50.9438 13.7854 52.9531 15.6124 53.8665C14.3337 55.6934 14.1515 58.0677 15.2472 60.077C16.1607 61.5379 17.6215 62.6343 19.4484 62.9996L12.1431 84.1879L19.8146 82.5439L24.7465 88.0241L30.957 70.1237C32.0527 71.2194 33.5143 71.9507 35.1583 71.9507C36.8022 71.9507 38.2632 71.2202 39.1766 70.3068L45.3871 88.0248L50.319 82.5446L57.9905 84.1886L50.8664 63.3647ZM23.6502 82.7267L20.9097 79.6211L16.3431 80.5346L21.275 66.2875C21.8232 67.3832 22.5537 68.2967 23.6493 69.0271C25.1103 69.9406 26.7543 69.9406 28.398 69.5754L23.6502 82.7267ZM35.1577 69.3921C33.5137 69.3921 32.0527 67.9312 32.0527 66.2871V65.9219V65.7389V65.5559L31.1393 65.3728L29.4953 65.0076C29.4953 65.1906 29.4953 65.1906 29.3123 65.3728C29.3123 65.5559 29.1293 65.5559 29.1293 65.7381C28.3988 67.199 26.3896 67.7472 24.928 66.8338C23.4671 65.9203 22.9188 64.0941 23.8323 62.6325C23.8323 62.4494 24.0153 62.4494 24.0153 62.2672C24.0153 62.2672 24.1984 62.0842 24.1984 61.902L22.1892 60.075C22.1892 60.075 22.0062 60.2581 21.8239 60.2581C21.8239 60.2581 21.6409 60.4411 21.4587 60.4411C19.9978 61.3546 17.9878 60.8063 17.2574 59.3454C16.344 57.8845 16.8922 55.8745 18.3531 55.1441C18.5362 55.1441 18.5362 54.9611 18.7184 54.9611C18.9014 54.9611 19.0836 54.7781 19.0836 54.7781L18.3531 52.2208H17.9879H17.6227C15.9787 52.2208 14.5177 50.7599 14.5177 49.1158C14.5177 47.4718 15.9786 46.0109 17.6227 46.0109H17.9879H18.1709H18.354L18.9022 43.2712C18.9022 43.2712 18.7192 43.2712 18.7192 43.0882C18.9006 43.089 18.7184 43.089 18.7184 42.9068C17.2575 41.9933 16.7092 40.1672 17.6227 38.7055C18.5362 37.2446 20.3623 36.6964 21.8239 37.6099C22.007 37.6099 22.007 37.7929 22.1892 37.7929C22.3722 37.7929 22.3722 37.9759 22.5544 37.9759L24.5636 35.9667C24.3806 35.7837 24.3806 35.7837 24.3806 35.6015C24.3806 35.4185 24.1975 35.4185 24.1975 35.2363C23.284 33.7754 23.8323 31.9484 25.2932 31.035C26.7541 30.1215 28.7641 30.6698 29.4945 32.1307C29.4945 32.3137 29.6775 32.3137 29.6775 32.4959C29.6775 32.6789 29.8605 32.8612 29.8605 32.8612L32.4179 32.1307V31.7655V31.4002C32.4179 29.7563 33.8788 28.2953 35.5228 28.2953C37.1667 28.2953 38.6278 29.7562 38.6278 31.4002V31.7655L38.4447 32.8612L40.8191 33.5916L41.3673 32.4959C41.3673 32.3129 41.5503 32.3129 41.5503 32.1307C42.2808 30.6698 44.29 30.1215 45.7516 31.035C46.4821 31.4002 47.0303 32.1307 47.2125 32.862C47.3955 33.5924 47.3956 34.5059 46.8473 35.2363C46.8473 35.4193 46.6643 35.4193 46.6643 35.6015C46.6643 35.7846 46.4812 35.7846 46.299 35.9668L48.3082 37.7938L48.4912 37.6107C48.6743 37.6107 48.6743 37.4277 48.8565 37.4277C50.3174 36.5142 52.3273 37.0625 53.0577 38.5234C53.9712 39.9843 53.423 41.9943 51.962 42.7247C51.779 42.7247 51.779 42.9077 51.5968 42.9077C51.4138 42.9077 51.2316 43.0907 51.2316 43.0907L51.962 45.648H52.3273H52.6925C54.3364 45.648 55.7974 47.1089 55.7974 48.753C55.7974 50.397 54.3365 51.8579 52.6925 51.8579H52.3273L50.6833 51.6749V52.9536L50.3181 54.0493L51.4138 54.5975C51.5968 54.5975 51.779 54.7806 51.779 54.7806C52.5095 55.1458 53.0577 55.8762 53.2399 56.6075C53.4229 57.338 53.4229 58.2515 52.8747 58.9819C52.1442 60.4428 50.135 60.991 48.6734 60.0776C48.4904 60.0776 48.4904 59.8945 48.3082 59.8945C48.3082 59.8945 48.1251 59.7115 47.9429 59.7115L46.116 61.7207L46.299 61.9037C46.299 62.0867 46.482 62.0867 46.482 62.2689C46.8473 62.9994 47.0303 63.9129 46.8473 64.6433C46.6642 65.3737 46.1168 66.1042 45.3864 66.4703C43.9254 67.3837 41.9155 66.8355 41.1851 65.3746C41.1851 65.1915 41.0021 65.1915 41.0021 65.0093C41.0021 64.8263 40.819 64.6441 40.819 64.6441L38.2617 65.3745V65.7398V66.105C38.2625 67.9312 36.8016 69.3921 35.1576 69.3921H35.1577ZM49.4048 79.6209L46.4822 82.9088L41.9156 69.5751C43.5596 70.1233 45.3865 69.9403 46.8475 69.2098C47.9432 68.6616 48.6745 67.7489 49.2219 66.6525L53.9705 80.7175L49.4048 79.6209Z" fill="#524EB7"></path>
        <path d="M47.3956 48.9329C47.3956 42.175 41.9155 36.6948 35.1575 36.6948C28.3996 36.6948 22.9194 42.175 22.9194 48.9329C22.9194 55.6909 28.3996 61.171 35.1575 61.171C41.9155 61.171 47.3956 55.6917 47.3956 48.9329ZM35.1575 58.4314C30.0427 58.4314 25.6591 54.2301 25.6591 48.9329C25.6591 43.8181 29.8604 39.4345 35.1575 39.4345C40.2724 39.4345 44.656 43.6357 44.656 48.9329C44.6551 54.0478 40.4547 58.4314 35.1575 58.4314Z" fill="#524EB7"></path>
        <path d="M112.972 0.529021H7.03028C3.19409 0.529021 0.0893555 3.63397 0.0893555 7.46994V106.47C0.0893555 110.306 3.1943 113.411 7.03028 113.411H112.972C116.808 113.411 119.913 110.306 119.913 106.47V7.28761C119.913 3.45142 116.807 0.528809 112.972 0.528809V0.529021ZM7.02815 3.26952H112.969C115.162 3.26952 117.171 5.09648 117.171 7.47079V13.8634H3.00964V7.28761C3.00964 5.09538 4.83661 3.2693 7.02794 3.2693L7.02815 3.26952ZM112.972 110.307H7.03028C4.83805 110.307 2.829 108.48 2.829 106.106V16.6039H116.99V106.106C117.172 108.481 115.163 110.307 112.972 110.307H112.972Z" fill="#524EB7"></path>
        <path d="M7.57715 7.46997H10.3168V10.2096H7.57715V7.46997Z" fill="#524EB7"></path>
        <path d="M13.9692 7.46997H16.7089V10.2096H13.9692V7.46997Z" fill="#524EB7"></path>
        <path d="M20.3638 7.46997H23.1034V10.2096H20.3638V7.46997Z" fill="#524EB7"></path>
        <path d="M73.1509 35.2346H110.961V37.9743H73.1509V35.2346Z" fill="#524EB7"></path>
        <path d="M65.8452 47.4722H110.962V50.2118H65.8452V47.4722Z" fill="#524EB7"></path>
        <path d="M79.5435 59.892H110.96V62.6316H79.5435V59.892Z" fill="#524EB7"></path>
        <path d="M74.6118 72.1315H110.779V74.8711H74.6118V72.1315Z" fill="#524EB7"></path>
        <path d="M65.8452 84.369H110.962V87.1087H65.8452V84.369Z" fill="#524EB7"></path>
        <path d="M51.7803 96.7909H110.78V99.5305H51.7803V96.7909Z" fill="#524EB7"></path>
    </symbol>
    <symbol fill="none" xmlns="http://www.w3.org/2000/svg" viewBox="0 0 72 72" id="corp-website">
        <path d="M2.13611 70.9949H69.8638C70.488 70.9949 70.9944 70.4885 70.9944 69.8643V2.1366C70.9944 1.51242 70.488 1.00596 69.8638 1.00596H2.13611C1.51193 1.00596 1.00547 1.5124 1.00547 2.1366V69.8643C1.00547 70.4885 1.51192 70.9949 2.13611 70.9949ZM68.7326 3.26697V68.7337H3.26592V3.26697H68.7326Z" fill="#524EB7" stroke="#524EB7" stroke-width="0.2"></path>
        <path d="M2.13611 15.0446H69.8638C70.488 15.0446 70.9944 14.5381 70.9944 13.9139C70.9944 13.2898 70.488 12.7833 69.8638 12.7833H2.13611C1.51193 12.7833 1.00547 13.2898 1.00547 13.9139C1.00547 14.5381 1.51192 15.0446 2.13611 15.0446Z" fill="#524EB7" stroke="#524EB7" stroke-width="0.2"></path>
        <path d="M21.6178 13.914C21.6178 14.5382 22.1242 15.0446 22.7484 15.0446C23.3726 15.0446 23.8791 14.5382 23.8791 13.914V2.13513C23.8791 1.51095 23.3726 1.00449 22.7484 1.00449C22.1242 1.00449 21.6178 1.51094 21.6178 2.13513V13.914Z" fill="#524EB7" stroke="#524EB7" stroke-width="0.2"></path>
        <path d="M38.9437 9.15591H69.8635C70.4877 9.15591 70.9942 8.64945 70.9942 8.02527C70.9942 7.40109 70.4877 6.89463 69.8635 6.89463H38.9437C38.3195 6.89463 37.8131 7.40109 37.8131 8.02527C37.8131 8.64945 38.3195 9.15591 38.9437 9.15591Z" fill="#524EB7" stroke="#524EB7" stroke-width="0.2"></path>
        <path d="M33.7272 7.22526L33.7272 7.22526C33.5171 7.43543 33.3961 7.72746 33.3961 8.0248C33.3961 8.32213 33.5171 8.61416 33.7272 8.82433L33.7979 8.75362L33.7272 8.82433C33.9374 9.03449 34.2294 9.15545 34.5268 9.15545C34.8241 9.15545 35.1161 9.0345 35.3263 8.82433C35.5365 8.61416 35.6574 8.32213 35.6574 8.0248C35.6574 7.72746 35.5365 7.43543 35.3263 7.22526L35.326 7.22497C35.1145 7.01525 34.8243 6.89414 34.5268 6.89414C34.2294 6.89414 33.9374 7.0151 33.7272 7.22526Z" fill="#524EB7" stroke="#524EB7" stroke-width="0.2"></path>
        <path d="M8.02576 41.5475H63.9746C64.5988 41.5475 65.1052 41.0411 65.1052 40.4169V19.8046C65.1052 19.1804 64.5988 18.6739 63.9746 18.6739H8.02576C7.40158 18.6739 6.89512 19.1804 6.89512 19.8046V40.4169C6.89512 41.0411 7.40157 41.5475 8.02576 41.5475ZM62.8435 20.9349V39.2863H9.15557V20.9349H62.8435Z" fill="#524EB7" stroke="#524EB7" stroke-width="0.2"></path>
        <path d="M13.9154 35.6583H58.0854C58.7096 35.6583 59.216 35.1519 59.216 34.5277C59.216 33.9035 58.7096 33.3971 58.0854 33.3971H13.9154C13.2912 33.3971 12.7848 33.9035 12.7848 34.5277C12.7848 35.1519 13.2912 35.6583 13.9154 35.6583Z" fill="#524EB7" stroke="#524EB7" stroke-width="0.2"></path>
        <path d="M23.2805 25.0661L23.2805 25.0661L17.3911 33.9003C17.3911 33.9003 17.3911 33.9003 17.3911 33.9003C17.0444 34.42 17.1846 35.1214 17.7043 35.4681C17.8671 35.5768 18.0479 35.6378 18.2303 35.6541V35.6585H18.3303C18.6952 35.6585 19.0541 35.4821 19.2722 35.1549L24.826 26.8243H35.5312L44.0343 35.3274L44.0343 35.3274C44.4762 35.7687 45.1914 35.7687 45.6333 35.3274L45.6334 35.3273C46.0746 34.8855 46.0747 34.1697 45.6333 33.7283L36.7992 24.8942C36.5869 24.6819 36.2996 24.5631 35.9997 24.5631H24.2208C23.8429 24.5631 23.4899 24.7523 23.2805 25.0661Z" fill="#524EB7" stroke="#524EB7" stroke-width="0.2"></path>
        <path d="M53.6693 35.6582V35.6582C53.3258 35.6582 52.9864 35.5019 52.7643 35.206L52.7643 35.2059L48.6858 29.7687H38.9447C38.3205 29.7687 37.8141 29.2622 37.8141 28.6381C37.8141 28.0139 38.3205 27.5074 38.9447 27.5074H49.2511C49.607 27.5074 49.9422 27.6747 50.1556 27.9597L53.6693 35.6582ZM53.6693 35.6582C53.9053 35.6581 54.1431 35.5842 54.3464 35.4321L54.3466 35.432C54.846 35.0571 54.9476 34.3487 54.5726 33.8491L50.1557 27.9597L53.6693 35.6582Z" fill="#524EB7" stroke="#524EB7" stroke-width="0.2"></path>
        <path d="M9.49646 53.3266H24.2207C24.8449 53.3266 25.3513 52.8201 25.3513 52.1959V46.3065C25.3513 45.6823 24.8449 45.1759 24.2207 45.1759H9.49646C8.87228 45.1759 8.36582 45.6823 8.36582 46.3065V52.1959C8.36582 52.8201 8.87227 53.3266 9.49646 53.3266ZM23.0898 47.4372V51.0653H10.6276V47.4372H23.0898Z" fill="#524EB7" stroke="#524EB7" stroke-width="0.2"></path>
        <path d="M30.1107 47.4372H63.9746C64.5988 47.4372 65.1052 46.9307 65.1052 46.3065C65.1052 45.6823 64.5988 45.1759 63.9746 45.1759H30.1107C29.4865 45.1759 28.9801 45.6823 28.9801 46.3065C28.9801 46.9307 29.4865 47.4372 30.1107 47.4372Z" fill="#524EB7" stroke="#524EB7" stroke-width="0.2"></path>
        <path d="M30.1107 53.3268H63.9746C64.5988 53.3268 65.1052 52.8203 65.1052 52.1962C65.1052 51.572 64.5988 51.0655 63.9746 51.0655H30.1107C29.4865 51.0655 28.9801 51.572 28.9801 52.1962C28.9801 52.8203 29.4865 53.3268 30.1107 53.3268Z" fill="#524EB7" stroke="#524EB7" stroke-width="0.2"></path>
        <path d="M9.49646 65.1054H24.2207C24.8449 65.1054 25.3513 64.599 25.3513 63.9748V58.0853C25.3513 57.4612 24.8449 56.9547 24.2207 56.9547H9.49646C8.87228 56.9547 8.36582 57.4611 8.36582 58.0853V63.9748C8.36582 64.5989 8.87227 65.1054 9.49646 65.1054ZM23.0898 59.216V62.8442H10.6276V59.216H23.0898Z" fill="#524EB7" stroke="#524EB7" stroke-width="0.2"></path>
        <path d="M30.1107 59.216H63.9746C64.5988 59.216 65.1052 58.7095 65.1052 58.0853C65.1052 57.4612 64.5988 56.9547 63.9746 56.9547H30.1107C29.4865 56.9547 28.9801 57.4612 28.9801 58.0853C28.9801 58.7095 29.4865 59.216 30.1107 59.216Z" fill="#524EB7" stroke="#524EB7" stroke-width="0.2"></path>
        <path d="M30.1107 65.1056H63.9746C64.5988 65.1056 65.1052 64.5992 65.1052 63.975C65.1052 63.3508 64.5988 62.8443 63.9746 62.8443H30.1107C29.4865 62.8443 28.9801 63.3508 28.9801 63.975C28.9801 64.5992 29.4865 65.1056 30.1107 65.1056Z" fill="#524EB7" stroke="#524EB7" stroke-width="0.2"></path>
        <path d="M6.55273 6.45273H6.45273V6.55273V9.49745V9.59745H6.55273H9.49745H9.59745V9.49745V6.55273V6.45273H9.49745H6.55273Z" fill="#524EB7" stroke="#524EB7" stroke-width="0.2"></path>
        <path d="M10.9697 6.45273H10.8697V6.55273V9.49745V9.59745H10.9697H13.9144H14.0144V9.49745V6.55273V6.45273H13.9144H10.9697Z" fill="#524EB7" stroke="#524EB7" stroke-width="0.2"></path>
        <path d="M15.3877 6.45273H15.2877V6.55273V9.49745V9.59745H15.3877H18.3324H18.4324V9.49745V6.55273V6.45273H18.3324H15.3877Z" fill="#524EB7" stroke="#524EB7" stroke-width="0.2"></path>
    </symbol>
    <symbol fill="none" xmlns="http://www.w3.org/2000/svg" viewBox="0 0 70 70" id="delivery">
        <path d="M11.3592 64.8737C10.0576 66.3787 8.24903 67.3534 6.27625 67.6138L6.56529 69.924C9.05694 69.6152 11.351 68.4102 13.0197 66.534L16.0774 69.5918V69.5923C16.4107 69.925 16.9113 70.0248 17.3464 69.8445C17.7815 69.6641 18.0653 69.2399 18.0653 68.7689V58.1978L20.3277 62.3457C21.0861 63.7362 22.4788 64.6658 24.0539 64.8321C24.2218 64.8493 24.3897 64.8586 24.5582 64.8586C25.9653 64.8602 27.3035 64.2468 28.2205 63.1796C29.2649 61.9611 29.634 60.3028 29.2056 58.7563C28.7773 57.2097 27.6071 55.9777 26.085 55.4699L25.1685 55.1637L65.9242 51.1906C66.2834 51.1552 66.6063 50.9551 66.7981 50.6489C66.9894 50.3432 67.0279 49.9653 66.9026 49.6269L66.6697 49.0005C65.7776 46.5936 64.7613 44.245 63.6421 41.9519C64.5778 41.8588 65.421 41.3458 65.9326 40.5567C66.4446 39.7676 66.5699 38.7887 66.2736 37.8962C66.1166 37.4127 65.9185 36.9402 65.7413 36.4614L68.9212 33.5269H68.9217C69.1603 33.3065 69.2965 32.9961 69.2965 32.6712C69.2965 32.3463 69.1603 32.036 68.9217 31.8156L65.7439 28.8837C65.9207 28.4049 66.1156 27.9324 66.2736 27.4479V27.4474C66.5829 26.4971 66.4187 25.4558 65.8318 24.6464C65.2449 23.837 64.306 23.3572 63.3063 23.3557H60.6036L64.1147 19.8435C64.8497 19.1085 65.1938 18.0693 65.0426 17.041C64.8918 16.0128 64.2633 15.116 63.3485 14.6232L62.2646 14.041H62.3145V9.38213C62.3145 9.07335 62.1918 8.77703 61.9735 8.5587C61.7551 8.34037 61.4588 8.21769 61.1501 8.21769H56.7334L55.91 6.68514C55.4172 5.77021 54.5205 5.14168 53.4922 4.99103C52.4639 4.84028 51.4248 5.18441 50.6896 5.91896L47.1766 9.43107V6.06149C47.175 5.06183 46.6952 4.12358 45.8864 3.53656C45.0775 2.95019 44.0363 2.78539 43.086 3.09418C42.6025 3.25013 42.13 3.44351 41.6512 3.62494L38.7167 0.446062C38.4911 0.216805 38.1828 0.0878906 37.861 0.0878906C37.5392 0.0878906 37.231 0.216812 37.0054 0.446062L34.0869 3.60405C33.6061 3.42575 33.1252 3.24899 32.637 3.0894C31.6857 2.7801 30.6439 2.94489 29.8341 3.53282C29.0247 4.12077 28.5454 5.06058 28.5454 6.06134V6.12164C26.8336 5.24362 25.0998 4.40518 23.3193 3.65181H23.2809C23.1327 3.59307 22.9742 3.56604 22.8151 3.5728H22.7532C22.6082 3.58527 22.4668 3.62478 22.3363 3.68924C22.3223 3.69756 22.3109 3.70795 22.2968 3.71627C22.2828 3.72459 22.2828 3.71627 22.2771 3.71627C22.2713 3.71627 22.2609 3.73499 22.25 3.74174L22.2505 3.74122C22.1117 3.827 21.9927 3.94084 21.9012 4.07548C21.9012 4.08588 21.8919 4.09627 21.8851 4.10667L21.8846 4.10719C21.792 4.2517 21.7323 4.41546 21.7099 4.58545L16.5515 47.9109L15.8123 45.2016C15.4146 43.7445 14.3198 42.58 12.8902 42.0935C11.4612 41.6069 9.88341 41.8616 8.67944 42.7734C7.476 43.6853 6.80328 45.1351 6.88446 46.6431C6.96607 48.1507 7.79055 49.5199 9.08494 50.2971L12.6974 52.4664H1.76302C1.29203 52.4664 0.86784 52.7503 0.687464 53.1854C0.507074 53.6205 0.606888 54.1211 0.939584 54.4543L7.60608 61.1208C5.45911 62.3035 3.05023 62.931 0.598633 62.9465V65.2754C3.67664 65.264 6.69582 64.4291 9.34238 62.8571L11.3592 64.8737ZM25.3473 57.6738C26.1301 57.9338 26.7337 58.5643 26.9587 59.3576C27.1843 60.1514 27.0024 61.005 26.4737 61.6376C25.9445 62.2703 25.1361 62.6004 24.3153 62.5188C23.495 62.4371 22.7677 61.9547 22.3731 61.2301L19.369 55.727L19.4693 55.7166L25.3473 57.6738ZM64.8121 31.187L66.4189 32.6705L64.8121 34.1541C64.5906 33.6603 64.3661 33.168 64.1248 32.6834C64.3707 32.1906 64.5886 31.6874 64.8121 31.1868V31.187ZM63.9502 39.3288C63.8015 39.5362 63.5613 39.6589 63.3061 39.6573H62.464C62.0772 38.9249 61.691 38.1924 61.2808 37.474C61.7918 36.7348 62.282 35.9847 62.7384 35.2174H62.7395C63.2375 36.3247 63.6788 37.4569 64.0609 38.6093C64.1441 38.8526 64.1025 39.1219 63.9502 39.3288ZM63.3061 25.6841C63.5613 25.6841 63.8005 25.8063 63.9502 26.0127C64.0999 26.2185 64.142 26.4842 64.063 26.7264C63.0742 29.7343 61.6951 32.5991 59.962 35.2487C58.1556 32.3074 56.1594 29.4873 53.9864 26.8055C55.2824 26.6833 56.5409 26.3017 57.6867 25.6841L63.3061 25.6841ZM62.2441 16.6737H62.2446C62.5107 16.8177 62.6937 17.0792 62.7379 17.3791C62.7821 17.679 62.6818 17.9821 62.4681 18.1968L59.9936 20.677C60.3092 19.6581 60.4225 18.5873 60.3263 17.5246C60.2567 16.8301 60.1402 16.1403 59.977 15.4614L62.2441 16.6737ZM59.9853 10.5463V12.8122L58.8338 12.1926C58.7325 11.9831 58.6451 11.7673 58.5334 11.5615L57.987 10.5462L59.9853 10.5463ZM48.214 11.6863L52.3348 7.56547C52.5495 7.35233 52.851 7.25252 53.1499 7.29516C53.4504 7.33779 53.7124 7.52129 53.8559 7.78901L56.4815 12.6657C57.3278 14.233 57.8461 15.9559 58.0057 17.7301C58.1996 19.507 57.5295 21.2692 56.2045 22.4689C54.9542 23.6136 53.271 24.163 51.5862 23.9759C49.8649 22.0405 48.0528 20.1914 46.1492 18.4286C45.6741 15.9775 46.4476 13.4506 48.2141 11.6862L48.214 11.6863ZM64.1862 49.0152L23.5184 52.98C30.3185 49.0926 35.417 42.8005 37.8098 35.3416C41.2028 24.3105 36.3985 15.7789 31.4531 10.3732V10.3727C46.406 19.1991 57.9387 32.8153 64.1854 49.0151L64.1862 49.0152ZM43.7997 5.30644C44.043 5.22535 44.3097 5.26641 44.5176 5.41665C44.725 5.56636 44.8482 5.80705 44.8477 6.06334V9.69389C43.4441 8.57258 41.9657 7.54744 40.4228 6.6268C41.5254 6.12982 42.6524 5.689 43.7997 5.30639V5.30644ZM37.861 2.9484L39.3446 4.55521C38.8508 4.77666 38.3569 4.99759 37.8729 5.2388C37.3847 4.99655 36.8945 4.7569 36.3965 4.53441L37.861 2.9484ZM30.8743 6.06127C30.8749 5.8055 30.9981 5.56534 31.2055 5.41562C31.4129 5.26642 31.6796 5.22587 31.9223 5.30645C36.6446 6.85244 41.0024 9.34356 44.7313 12.6274C44.1652 13.7612 43.8247 14.9943 43.7275 16.258C39.7481 12.8702 35.4427 9.88467 30.8743 7.34524V6.06127ZM23.8004 6.71576V6.71524C26.5446 8.62147 29.0098 10.9005 31.1249 13.4867C36.393 20.0284 37.8927 27.1514 35.5836 34.6571C32.1375 45.8546 22.5787 51.1284 18.4749 52.9316L18.3023 52.8734L23.8004 6.71576ZM12.7589 62.9806L11.3277 61.5494C12.5514 60.6345 13.6868 59.6078 14.7197 58.4824C14.2549 60.057 13.5963 61.5682 12.7589 62.9806ZM15.7365 65.9583L14.4556 64.6774C14.9365 63.9449 15.3648 63.1791 15.7365 62.3853V65.9583ZM10.2797 48.2999C9.64862 47.9204 9.24678 47.2529 9.20779 46.5173C9.16828 45.7817 9.49631 45.0752 10.0832 44.6302C10.6706 44.1857 11.44 44.0615 12.1372 44.2985C12.8344 44.5356 13.3681 45.1033 13.5626 45.8139L15.0145 51.1412L10.2797 48.2999ZM4.57391 54.7954H14.7234C13.2996 56.7349 11.5867 58.4452 9.64558 59.8664L4.57391 54.7954Z" fill="#524EB7"></path>
    </symbol>
    <symbol fill="none" xmlns="http://www.w3.org/2000/svg" viewBox="0 0 120 118" id="group">
        <path d="M79.4528 60.5786L60.6391 44.1393C60.0909 43.774 59.3604 43.774 58.8122 44.1393L39.9984 60.5786C39.6332 60.7617 39.4502 61.1269 39.4502 61.6743V85.969C39.4502 86.6995 39.9984 87.4299 40.9111 87.4299H78.5394C79.2698 87.4299 80.0003 86.8817 80.0003 85.969L80.0019 61.492C80.0019 61.1268 79.8189 60.7615 79.4537 60.5793L79.4528 60.5786ZM63.5617 71.5379H55.8902L44.931 62.953H74.7041L63.5617 71.5379ZM42.1907 64.4138L53.1499 72.9986L42.1907 82.8622V64.4138ZM55.8904 74.2773H63.5619L75.0694 84.5061H44.3825L55.8904 74.2773ZM66.1193 72.9986L77.0785 64.4137V82.8623L66.1193 72.9986ZM59.7258 47.0608L74.8865 60.2122L44.5642 60.2114L59.7258 47.0608Z" fill="#524EB7"></path>
        <path d="M50.229 13.8173H70.8696V16.5569H50.229V13.8173Z" fill="#524EB7"></path>
        <path d="M53.1504 21.4896H68.1281V24.2293H53.1504V21.4896Z" fill="#524EB7"></path>
        <path d="M18.9951 93.2734C19.3604 93.6386 19.7256 94.1868 19.7256 94.7343H22.4652C22.4652 93.4556 21.917 92.1769 20.8213 91.2634C20.0908 90.7151 19.3604 90.3499 18.4469 90.1677V87.7933H15.7073V90.1677C14.7938 90.3507 14.0634 90.7159 13.3329 91.2634C12.2373 92.1769 11.689 93.4556 11.689 94.7343C11.689 96.0129 12.2373 97.2916 13.3329 98.2052C14.2464 99.1186 15.7073 99.4839 16.9859 99.4839C17.7164 99.4839 18.4469 99.6669 18.8129 100.214C19.1782 100.58 19.5434 101.128 19.5434 101.675C19.5434 102.223 19.3603 102.589 18.8129 103.136C17.8994 104.05 16.0733 104.05 14.9767 103.136C14.6115 102.771 14.2463 102.223 14.2463 101.675H11.689C11.689 102.954 12.2372 104.233 13.3329 105.146C14.0634 105.694 14.7938 106.06 15.7072 106.242V108.616H18.4469V106.242C19.3604 106.059 20.0908 105.694 20.8212 105.146C21.9169 104.233 22.4652 102.954 22.4652 101.675C22.4652 100.397 21.9169 99.1179 20.8212 98.2043C19.9078 97.2908 18.4469 96.9256 17.1682 96.9256C16.4378 96.9256 15.7073 96.7426 15.3413 96.1952C14.976 95.8299 14.6108 95.2817 14.6108 94.7343C14.6108 94.186 14.7938 93.8208 15.3413 93.2734C16.2556 92.3599 17.8994 92.3599 18.9951 93.2734Z" fill="#524EB7"></path>
        <path d="M112.881 95.2833C112.516 94.0046 112.151 93.091 111.968 92.5436C111.237 91.4479 110.324 90.5344 109.228 89.621C108.132 88.8905 107.036 88.3423 105.575 88.1601C104.296 87.9771 103.018 87.9771 101.557 88.1601C100.278 88.3431 98.8171 88.8905 97.7206 89.621C96.4419 90.3515 95.5283 91.2649 94.6156 92.3606C93.8852 93.4563 93.1547 94.5529 92.9717 95.8315C92.6064 97.1102 92.6064 98.3888 92.6064 99.6677C92.7895 100.946 93.1547 102.225 93.8851 103.321C94.6156 104.416 95.5291 105.33 96.6248 106.243C97.7205 106.974 98.817 107.522 100.278 107.704C101.008 107.887 101.556 107.887 102.287 107.887C103.017 107.887 103.566 107.887 104.296 107.704L103.748 104.965C102.834 105.148 101.739 105.148 100.825 104.965C99.9118 104.782 98.9983 104.416 98.268 103.869C97.5375 103.321 96.8071 102.59 96.2588 101.86C95.7105 101.129 95.5283 100.216 95.3453 99.3024C95.1623 98.389 95.3453 97.4754 95.5283 96.5628C95.7114 95.6493 96.2588 94.7358 96.807 94.0055C97.3553 93.092 98.2679 92.5445 99.1814 91.9963C100.095 91.448 101.008 91.0828 102.104 90.9006C103.017 90.7176 104.113 90.7176 105.027 90.9006C105.94 91.0836 106.854 91.4488 107.584 91.9963C108.314 92.5445 109.045 93.275 109.593 94.0055C109.593 94.1885 109.958 94.5537 110.324 96.0146C110.507 97.1103 110.324 98.2069 109.775 98.9372C109.41 99.3025 109.045 99.6677 108.68 99.8507C108.131 99.8499 107.766 99.8499 107.766 99.8499C107.401 99.6669 107.218 98.7542 107.218 98.0229C107.218 97.8399 107.218 97.6577 107.401 97.4747C107.766 95.6477 107.766 94.1868 107.766 94.1868L107.949 92.9081L106.67 92.725C106.67 92.725 105.94 92.542 104.844 92.542C102.104 92.542 99.9116 93.6377 98.633 95.647C97.7195 97.1079 97.3543 98.7519 97.7195 100.214C98.0847 101.309 98.633 102.223 99.7287 102.771C100.277 102.954 100.824 103.136 101.373 103.136C102.833 103.136 104.295 102.406 105.391 101.309C105.574 101.674 105.939 102.04 106.304 102.223C107.035 102.588 108.131 102.953 109.775 102.223C110.689 101.857 111.419 101.127 111.967 100.396C112.881 98.9364 113.246 97.1094 112.881 95.2833L112.881 95.2833ZM104.113 98.5712C103.565 99.4847 102.286 100.398 101.374 100.398H101.008C100.643 100.215 100.46 99.8499 100.46 99.6677C100.277 98.9372 100.46 98.2068 101.008 97.2933C101.922 95.8324 103.748 95.4664 104.845 95.4664C104.845 96.0146 104.662 96.5621 104.662 97.2933C104.479 98.0238 104.479 98.0238 104.479 98.2068C104.296 98.206 104.113 98.206 104.113 98.5712L104.113 98.5712Z" fill="#524EB7"></path>
        <path d="M108.497 82.132C110.141 77.0171 111.054 71.7202 111.054 66.2409C111.054 45.235 97.9026 26.2381 78.3594 18.7497V18.3845C78.3594 8.52095 70.3228 0.484131 60.459 0.484131C50.5955 0.484131 42.5587 8.52074 42.5587 18.3845V18.5675C22.4661 25.8737 9.13251 44.87 9.13251 66.4233C9.13251 71.9035 10.046 77.0175 11.6898 82.1323C4.93187 84.3245 0 90.7172 0 98.2064C0 107.522 7.67152 115.194 16.9876 115.194C22.6499 115.194 27.7647 112.271 30.8697 108.07C39.4546 114.097 49.5004 117.385 60.0958 117.385C70.5076 117.385 80.5535 114.28 89.1375 108.252C92.2425 112.454 97.1741 115.193 102.837 115.193C112.153 115.193 119.825 107.522 119.825 98.2055C119.822 90.7163 115.073 84.5058 108.497 82.1315L108.497 82.132ZM47.3073 25.5072C46.0286 23.315 45.4804 20.7586 45.4804 18.3831C45.4804 9.98124 52.2383 3.22244 60.6411 3.22244C69.043 3.22244 75.8018 9.98039 75.8018 18.3831C75.8018 26.7851 69.0438 33.5439 60.6411 33.5439C58.2667 33.5439 55.7092 32.9956 53.8831 32.0829L53.5179 31.8999L45.116 33.7269L47.6733 26.2377L47.3073 25.5072ZM16.9851 112.27C9.1306 112.27 2.73795 105.877 2.73795 98.0227C2.73795 90.1682 9.1306 83.7755 16.9851 83.7755C24.8396 83.7755 31.2322 90.1682 31.2322 98.0227C31.2322 105.877 24.8396 112.27 16.9851 112.27ZM60.0918 114.279C50.0459 114.279 40.3645 111.174 32.3285 105.329C33.4242 103.137 33.9725 100.58 33.9725 97.8396C33.9725 88.5241 26.301 80.852 16.9849 80.852C16.0714 80.852 15.1579 80.852 14.4275 81.035C12.7836 76.1031 12.0532 71.1715 12.0532 65.8743C12.0532 45.7817 24.4743 28.0637 43.1048 20.94C43.47 22.767 43.8352 24.4109 44.7487 26.0549L40.7304 37.3794L52.9685 34.6397C55.1607 35.7354 57.9004 36.2837 60.64 36.2837C69.4079 36.2837 76.7141 29.891 78.1751 21.6712C96.2584 28.9774 108.313 46.6953 108.313 66.2387C108.313 71.5357 107.399 76.4676 105.756 81.3994C104.842 81.2164 103.746 81.0342 102.833 81.0342C93.5175 81.0342 85.8453 88.7057 85.8453 98.0218C85.8453 100.761 86.5758 103.319 87.6723 105.511C79.6365 111.355 70.1381 114.277 60.0914 114.277L60.0918 114.279ZM102.834 112.27C94.9794 112.27 88.5867 105.877 88.5867 98.0227C88.5867 90.1682 94.9794 83.7755 102.834 83.7755C110.688 83.7755 117.081 90.1682 117.081 98.0227C117.081 105.877 110.688 112.27 102.834 112.27Z" fill="#524EB7"></path>
    </symbol>
    <symbol fill="none" xmlns="http://www.w3.org/2000/svg" viewBox="0 0 120 98" id="dev">
        <path d="M68.7997 27.7429C67.3414 31.2076 64.0594 42.3295 70.0762 65.8508C70.2589 66.58 71.1699 68.221 73.1757 68.221C75.1813 68.221 76.0931 66.7626 76.2751 65.8508C82.6565 41.9651 79.3746 31.0254 77.7335 27.5609C79.3745 26.1025 80.1036 24.4614 80.1036 24.4614C83.0211 19.1738 79.0099 14.6153 77.7335 13.1568C76.0924 11.3331 77.0043 8.41652 77.0043 8.41652L77.5516 6.59277H75.7278C75.3632 6.59277 67.7054 6.77548 65.3344 15.8918C63.6942 22.2724 66.429 26.1018 68.8 27.7428L68.7997 27.7429ZM67.8879 16.6201C69.1643 11.8798 72.0817 10.2387 73.9048 9.69144C73.7221 11.1498 73.9048 13.338 75.5458 14.9791C78.2807 18.0785 79.0106 20.6313 77.5515 23.1844C77.5515 23.1844 76.8223 24.8254 75.1813 25.9192L73.9049 26.6483L74.634 27.9248C74.634 28.1075 80.8336 37.5883 73.3576 65.1206C73.3576 65.4851 72.993 65.4851 72.993 65.4851C72.8103 65.4851 72.6284 65.3024 72.6284 65.1206C65.5169 37.5883 71.5346 28.1068 71.5346 27.9248L72.4465 26.6483L70.9874 26.1019C70.8055 25.9192 66.0642 23.7317 67.8879 16.6202L67.8879 16.6201Z" fill="#524EB7"></path>
        <path d="M71.7163 46.3418H74.4511V49.0766H71.7163V46.3418Z" fill="#524EB7"></path>
        <path d="M71.7158 39.9609H74.4507V42.6958H71.7158V39.9609Z" fill="#524EB7"></path>
        <path d="M114.383 0.939453H4.98177C2.24695 0.939453 0.0585938 3.31046 0.0585938 6.04527V78.7966C0.0585938 81.5314 2.24695 83.9024 5.16441 83.9024H44.7305L37.8019 94.2959H30.5085V97.0307H89.4038V94.2959H82.1104L75.1818 83.9024H114.748C117.483 83.9024 119.854 81.7141 119.854 78.7966L119.853 6.04527C119.488 3.31046 117.117 0.939453 114.382 0.939453H114.383ZM4.98177 3.67511H114.383C115.659 3.67511 116.753 4.76887 116.753 6.04527V70.7754L2.7932 70.7746V6.04656C2.7932 4.77012 3.70507 3.6764 4.98156 3.6764L4.98177 3.67511ZM78.4632 94.1132H40.9013L47.83 83.7198L71.5337 83.7206L78.4632 94.1132ZM114.383 80.985H4.98177C3.70532 80.985 2.79341 79.8912 2.79341 78.6148V73.5098H116.753V78.7974C116.753 80.0739 115.659 80.985 114.383 80.985H114.383Z" fill="#524EB7"></path>
        <path d="M86.6685 58.1937C86.6685 62.0231 89.0386 65.6697 92.5034 67.3107L94.509 68.2226V62.023L96.6974 60.1993L98.8857 62.023L98.8849 68.04L100.891 67.1281C104.355 65.4871 106.543 62.0223 106.543 58.1937C106.543 54.9116 104.902 51.8123 101.984 49.9884V25.0085C104.719 23.1848 106.543 20.0853 106.543 16.8032C106.543 12.9738 104.354 9.50987 100.891 7.86881L98.8849 6.95776V12.9747L96.6965 14.7984L94.5082 12.9747L94.509 6.95776L92.5034 7.86881C88.8568 9.50985 86.6685 12.9746 86.6685 16.9859C86.6685 20.268 88.3095 23.3672 91.227 25.1911V49.807C88.3095 51.6299 86.6685 54.7302 86.6685 58.1941V58.1937ZM93.2327 23.1863C90.8625 21.9098 89.4033 19.5397 89.4033 16.9867C89.4033 14.9811 90.3151 12.9755 91.7734 11.6991V14.4339L96.6966 18.6278L101.62 14.4339V11.8811C102.896 13.1575 103.808 14.9806 103.808 16.9869C103.808 19.5397 102.35 22.0927 99.9787 23.1865L99.2496 23.5511V51.4495L99.9787 51.8141C102.349 53.0905 103.808 55.4607 103.808 58.0137C103.808 60.0193 103.079 61.8431 101.62 63.1195V60.5667L96.6966 56.3728L91.7734 60.5667V63.3015C90.3151 62.0251 89.4033 60.0194 89.4033 58.0139C89.4033 55.4611 90.8616 52.9081 93.2327 51.8143L93.9619 51.4497V23.5513L93.2327 23.1863Z" fill="#524EB7"></path>
        <path d="M53.1174 8.78003H7.71631V35.9483H52.9354L52.9362 8.78003H53.1174ZM27.5914 22.2729L10.452 32.1191L10.4511 12.6092L27.5914 22.2729ZM14.2803 11.5148H46.5533L30.5076 20.8139L14.2803 11.5148ZM30.5081 23.914L46.5538 33.213H14.2808L30.5081 23.914ZM33.2437 22.273L50.3832 12.4268V32.1193L33.2437 22.273Z" fill="#524EB7"></path>
        <path d="M28.6857 39.4127H7.7168V65.4868H28.503V39.4127H28.6857ZM25.9509 62.7524H10.4516V42.1488H25.9509V62.7524Z" fill="#524EB7"></path>
        <path d="M32.332 65.4868H53.1183V39.4127H32.332V65.4868ZM35.0668 42.1492H50.3835V62.7535L35.0668 62.7527V42.1492Z" fill="#524EB7"></path>
    </symbol>
    <symbol fill="none" xmlns="http://www.w3.org/2000/svg" viewBox="0 0 120 90" id="modernization">
        <path d="M119.914 58.6225V47.115L112.425 45.6541C111.694 42.7315 110.598 39.9919 109.137 37.4344L113.52 31.2238L105.484 23.004L99.2732 27.2053C96.7159 25.5614 93.9763 24.4657 91.0535 23.7344L89.7748 16.2452H78.2673L76.8064 23.7344C73.8838 24.4649 71.1441 25.5614 68.5866 27.0223L62.376 22.6387L54.1563 30.6753L58.3575 36.8859C56.8966 39.4432 55.6179 42.1828 54.8866 45.1057L47.3975 46.3844V57.8919L54.8866 59.3528C55.6171 62.2754 56.7136 65.015 58.1746 67.5725L53.6088 74.1484L61.8286 82.3682L68.0392 78.1669C70.5965 79.8108 73.3361 80.9065 76.2589 81.6378L77.5376 89.127H89.0451L90.506 81.6378C93.4287 80.9073 96.1683 79.8108 98.7258 78.3499L104.936 82.7335L113.156 74.5137L108.955 68.3032C110.599 65.7458 111.695 63.0062 112.426 60.0834L119.914 58.6225ZM110.05 58.4395C109.32 61.5445 108.041 64.65 106.214 67.3897L105.666 68.1201L109.684 73.9654L104.753 79.0802L98.908 75.0619L98.1775 75.6102C95.4379 77.4371 92.3323 78.5328 89.2273 79.2632L88.3139 79.2623L87.0352 86.2033H80.0942L78.8155 79.2623L77.9021 79.0793C74.7971 78.3488 71.6915 77.0701 68.9519 75.2431L68.2214 74.6949L62.1939 78.714L57.262 73.783L61.2803 67.9378L60.732 67.2073C58.9051 64.4677 57.6271 61.3621 57.079 58.2571L56.896 57.3437L49.9559 55.8819V48.941L56.8969 47.6623L57.0799 46.7488C57.8103 43.4609 59.0891 40.5383 60.9161 37.7986L61.4643 37.0682L57.4443 31.223L62.3762 26.2911L68.2214 30.3094L68.9519 29.7611C71.6915 27.9342 74.7971 26.6562 77.9021 26.1081L78.8155 25.9251L80.0942 18.9842H87.0352L88.3139 25.9251L89.2273 26.1081C92.5153 26.8386 95.4379 28.1173 98.1775 29.9443L98.908 30.4926L104.753 26.4743L109.685 31.4061L105.667 37.2514L106.215 37.9818C108.042 40.7215 109.138 43.6441 109.868 46.932L110.051 47.8455L116.992 49.1242V56.0651L110.232 57.526L110.05 58.4395Z" fill="#524EB7"></path>
        <path d="M83.5633 31.4062C71.8734 31.4062 62.375 40.9047 62.375 52.5945C62.375 58.2568 64.5672 63.5537 68.5855 67.5723C72.6038 71.5906 77.901 73.7828 83.5633 73.7828H83.7463C95.4361 73.7828 104.935 64.2843 104.935 52.5945C104.935 46.9323 102.742 41.6353 98.724 37.6168C94.7057 33.5985 89.4085 31.4062 83.5633 31.4062H83.5633ZM83.5633 71.2268V72.6877V71.2268C78.4484 71.2268 73.8827 69.2176 70.4118 65.7466C66.9409 62.2757 65.1149 57.5268 65.1149 52.5952C65.1149 42.3663 73.5168 34.1465 83.7456 34.1465C88.6775 34.1465 93.244 36.1557 96.7141 39.6267C100.185 43.0976 102.011 47.8465 102.011 52.7781C102.012 62.824 93.7921 71.2268 83.5633 71.2268Z" fill="#524EB7"></path>
        <path d="M51.7806 34.6924L47.397 31.4045C47.7622 29.3954 47.9452 27.3862 47.7622 25.5593L52.5109 22.8196L49.5883 14.4177L44.1081 15.1482C43.0124 13.5043 41.7338 12.0432 40.2719 10.7646L41.7328 5.46763L33.8784 1.63145L30.5904 6.01505C28.5813 5.64981 26.7543 5.4668 24.7452 5.64982L22.0056 0.901123L13.6045 3.64077L14.335 9.12091C12.691 10.2166 11.23 11.4953 9.95136 12.9571L4.6544 11.4962L0.818215 19.3507L5.20182 22.6386C4.83658 24.6478 4.65357 26.4748 4.83658 28.4838L0.0878906 31.2218L3.0105 39.6237L8.49065 38.8932C9.58634 40.5372 10.865 41.9982 12.3268 43.2768L10.8659 48.5738L18.9025 52.41L22.1904 48.0264C24.1996 48.3916 26.2088 48.5746 28.0357 48.3916L30.7753 53.1403L39.1772 50.2177L38.4468 44.7375C40.0907 43.6418 41.5517 42.3632 42.8304 40.9014L48.1273 42.3623L51.7806 34.6924ZM41.5517 37.9804L41.0035 38.7108C39.5426 40.5378 37.8985 41.9987 35.8886 43.0944L35.1582 43.6427L35.8886 48.5745L31.8703 50.0354L29.496 45.6518L28.5825 45.8349C26.3903 46.0179 24.0159 46.0179 21.8246 45.4696L20.9111 45.2866L17.9885 49.3049L14.1523 47.4779L15.2488 42.3639L14.5183 41.8157C12.6914 40.3548 11.2304 38.7107 10.1347 36.7008L9.76949 35.9712L4.65465 36.7017L3.19375 32.6834L7.57735 30.309L7.39433 29.3955C7.2113 27.0212 7.2113 24.829 7.75956 22.6376L7.94259 21.7241L4.28959 18.6185L6.11655 14.7832L10.8652 16.0619L11.5957 15.3306C13.0566 13.5036 14.7006 12.0427 16.7105 10.947L17.441 10.3988L16.7105 5.46689L20.7288 4.00598L23.1032 8.38959L24.0167 8.20656C26.2089 8.02353 28.5832 8.02353 30.7746 8.5718L31.6881 8.75482L34.6107 4.73652L38.4469 6.56349L37.1682 11.6775L37.8987 12.2257C39.7256 13.6866 41.1866 15.3307 42.2823 17.3406L42.8305 18.071L47.7624 17.3406L49.2233 21.3589L44.8397 23.9156L45.0227 24.829C45.2057 27.0213 45.2057 29.3956 44.6575 31.587L44.4744 32.5005L48.4928 35.4231L46.6658 39.2593L41.5517 37.9804Z" fill="#524EB7"></path>
        <path d="M26.2093 14.5999C24.9306 14.5999 23.4697 14.7829 22.191 15.3303C19.0861 16.426 16.5287 18.6182 15.0669 21.5408C13.606 24.4635 13.423 27.9335 14.5187 31.0393C16.1626 36.1541 20.9113 39.4412 26.3915 39.4412C27.6702 39.4412 29.1311 39.2582 30.4098 38.7107C33.5147 37.6151 36.072 35.4228 37.5339 32.5002C38.9948 29.5776 39.1778 26.1076 38.0821 23.0018C36.2551 18.0707 31.6886 14.5999 26.2093 14.5999ZM34.9765 31.4045C33.8808 33.7789 31.8716 35.4228 29.3143 36.3364C28.4008 36.5194 27.3051 36.7016 26.2093 36.7016C22.008 36.7016 18.3548 34.1443 17.0762 30.1258C16.1627 27.7515 16.3457 25.011 17.6244 22.6366C18.7201 20.2623 20.7294 18.6183 23.2867 17.7047C24.3824 17.3395 25.2959 17.1565 26.3916 17.1565C30.5929 17.1565 34.2461 19.7138 35.5248 23.7323C36.2552 26.2905 36.0722 29.03 34.9765 31.4045Z" fill="#524EB7"></path>
        <path d="M89.2266 49.3065L93.427 52.5944L89.2266 56.0653L91.0527 58.0745L97.6285 52.5943L91.0527 47.115L89.2266 49.3065Z" fill="#524EB7"></path>
        <path d="M76.0758 47.1143L69.5 52.5935L76.0758 58.0737L77.902 56.0645L73.8837 52.5936L77.902 49.3057L76.0758 47.1143Z" fill="#524EB7"></path>
        <path d="M80.4388 61.9616L77.9824 60.7466L86.6468 43.2273L89.1032 44.4422L80.4388 61.9616Z" fill="#524EB7"></path>
    </symbol>
    <symbol fill="none" xmlns="http://www.w3.org/2000/svg" viewBox="0 0 70 56" id="news">
        <path d="M60.2089 11.9901C60.2089 12.3783 60.0548 12.7502 59.7804 13.0247C59.5064 13.2991 59.134 13.4532 58.7463 13.4532H26.7135C25.9059 13.4532 25.2509 12.7982 25.2509 11.9901C25.2509 11.1825 25.906 10.5275 26.7135 10.5275H58.7463C59.134 10.5275 59.5064 10.6816 59.7804 10.9561C60.0549 11.2305 60.2089 11.6024 60.2089 11.9901V11.9901ZM26.7134 21.4176H36.3526C37.1607 21.4176 37.8152 20.7626 37.8152 19.9546C37.8152 19.147 37.1607 18.492 36.3526 18.492H26.7134C25.9058 18.492 25.2508 19.147 25.2508 19.9546C25.2508 20.7626 25.9059 21.4176 26.7134 21.4176ZM26.7134 29.36L36.3526 29.3595C37.1607 29.3595 37.8152 28.705 37.8152 27.8969C37.8152 27.0894 37.1607 26.4344 36.3526 26.4344H26.7134C25.9058 26.4344 25.2508 27.0894 25.2508 27.8969C25.2508 28.705 25.9059 29.3595 26.7134 29.3595V29.36ZM26.7134 37.3024L36.3526 37.3019C37.1607 37.3019 37.8152 36.6474 37.8152 35.8393C37.8152 35.0318 37.1607 34.3768 36.3526 34.3768H26.7134C25.9058 34.3768 25.2508 35.0318 25.2508 35.8393C25.2508 36.6474 25.9059 37.3019 26.7134 37.3019V37.3024ZM58.7462 42.3192H26.7134C25.9058 42.3192 25.2508 42.9742 25.2508 43.7817C25.2508 44.5898 25.9059 45.2443 26.7134 45.2443H58.7462C59.5543 45.2443 60.2088 44.5898 60.2088 43.7817C60.2088 42.9742 59.5543 42.3192 58.7462 42.3192ZM60.2088 19.9479V35.8259C60.2088 36.2136 60.0547 36.5855 59.7803 36.8599C59.5063 37.1344 59.1339 37.2885 58.7462 37.2885H44.5072C43.6991 37.2885 43.0446 36.6334 43.0446 35.8259V19.9557C43.0446 19.1482 43.6992 18.4932 44.5072 18.4932H58.7462C59.1339 18.4932 59.5063 18.6473 59.7803 18.9217C60.0547 19.1962 60.2088 19.5681 60.2088 19.9558V19.9479ZM57.2837 21.4104H45.9697V34.3625H57.2837V21.4104ZM0.0260173 46.1011V17.5787C0.0260173 16.7712 0.68104 16.1162 1.48857 16.1162C2.29664 16.1162 2.95165 16.7712 2.95165 17.5787V46.1011C3.02613 48.2881 4.23619 50.2776 6.14357 51.3499C8.05094 52.4228 10.3799 52.4228 12.2872 51.3499C14.1946 50.2776 15.4047 48.2881 15.4792 46.1011V2.16959C15.4792 1.36203 16.1342 0.707031 16.9417 0.707031H68.5014C68.8897 0.707031 69.2615 0.861096 69.536 1.13555C69.81 1.41001 69.964 1.7819 69.964 2.16961V47.4032C69.966 49.4994 69.1335 51.5098 67.65 52.9908C66.1665 54.4712 64.1544 55.3003 62.0583 55.2946H9.21877C6.78078 55.2926 4.44388 54.3233 2.72 52.6C0.996772 50.8763 0.0274802 48.5393 0.0253906 46.1018L0.0260173 46.1011ZM15.9327 52.3687H62.0583C63.3734 52.3687 64.6346 51.8463 65.5646 50.9164C66.4945 49.9864 67.0169 48.7253 67.0169 47.4101V3.63136H18.4113V46.1015C18.4139 48.4287 17.5298 50.6698 15.9391 52.3691L15.9327 52.3687ZM7.75619 17.8859V46.0792C7.75619 46.8867 8.41121 47.5417 9.21926 47.5417C10.0268 47.5417 10.6818 46.8867 10.6818 46.0792V17.8859C10.6818 17.0783 10.0268 16.4233 9.21926 16.4233C8.41119 16.4233 7.75619 17.0784 7.75619 17.8859Z" fill="#524EB7"></path>
    </symbol>
    <symbol fill="none" xmlns="http://www.w3.org/2000/svg" viewBox="0 0 72 72" id="products">
        <path d="M68.9749 46.5549V11.9669C68.9749 10.1087 67.4873 8.60252 65.664 8.60252H55.3568C54.7422 8.60252 54.2452 8.10139 54.2452 7.48477C54.2452 6.86972 54.7425 6.36885 55.3568 6.36885H65.664H66.0803L66.0673 6.38509C68.9329 6.59525 71.197 9.02048 71.1964 11.9703V50.7119C71.1964 53.7976 68.7163 56.3101 65.6622 56.3101H45.5907L47.7612 66.7814L68.9749 46.5549ZM68.9749 46.5549H3.1789V11.9685C3.1789 10.1109 4.66713 8.60408 6.48981 8.60408H16.7982C17.4125 8.60408 17.9105 8.1033 17.9105 7.48755C17.9105 6.8718 17.4125 6.37101 16.7982 6.37101H6.48981C3.43693 6.37101 0.95625 8.88477 0.95625 11.9697V50.7114C0.95625 53.7957 3.43631 56.3095 6.48981 56.3095H26.5613L24.6527 65.518L24.6523 65.5179L24.6516 65.5232L24.6515 65.5237L24.6509 65.5263C24.6506 65.5279 24.6502 65.5297 24.6498 65.5317L24.3908 66.7816C24.1642 67.8755 24.4046 68.9724 25.0614 69.7852L25.0615 69.7853C25.7139 70.5911 26.7225 71.0488 27.821 71.0488H44.331C45.4311 71.0488 46.4411 70.5919 47.0925 69.7846C47.7499 68.9712 47.989 67.8748 47.7612 66.7816L68.9749 46.5549ZM69.1701 50.7074V48.7857H68.9701M69.1701 50.7074L68.9701 48.5857V48.7857M69.1701 50.7074C69.1726 52.6733 67.5984 54.2723 65.6636 54.273L69.1701 50.7074ZM68.9701 48.7857H3.17414V50.7074C3.17414 52.5662 4.66302 54.073 6.48506 54.073H27.9231H27.9298H44.2185H44.224H65.6623C67.4844 54.073 68.9724 52.5662 68.9701 50.7076V50.7074V48.7857ZM45.5845 67.233C45.6794 67.6877 45.5945 68.0848 45.3719 68.3647L45.366 68.3719C45.1427 68.6475 44.7826 68.8112 44.3309 68.8112H27.8208C27.3702 68.8112 27.009 68.6474 26.7864 68.3721L26.7863 68.3719C26.5594 68.0917 26.4721 67.693 26.5684 67.2325L26.5686 67.2319L26.6447 66.8623H45.5074L45.5845 67.2329L45.5845 67.233ZM24.6528 65.5179L24.6528 65.518L24.6528 65.5179ZM43.3212 56.3055L45.0444 64.6274H27.1065L28.8312 56.3055H30.667C31.2022 58.8284 33.4293 60.7365 36.0768 60.7365C38.723 60.7365 40.9514 58.8284 41.4867 56.3055H43.3212ZM36.0771 58.5028C34.6635 58.5028 33.4471 57.5875 32.9771 56.3055H39.1752C38.7046 57.5872 37.4883 58.5028 36.0771 58.5028Z" fill="#524EB7" stroke="#524EB7" stroke-width="0.4"></path>
        <path d="M36.0751 42.2739C47.4474 42.2739 56.6998 32.9699 56.6998 21.537C56.6998 10.1041 47.4485 0.8 36.0751 0.8C24.7016 0.8 15.4504 10.1041 15.4504 21.537C15.4504 32.9699 24.7017 42.2739 36.0751 42.2739ZM36.0751 3.03341C46.2203 3.03341 54.4758 11.3335 54.4758 21.537C54.4758 31.7402 46.2199 40.0405 36.0751 40.0405C25.9303 40.0405 17.6744 31.7405 17.6744 21.537C17.6744 11.3325 25.9303 3.03341 36.0751 3.03341Z" fill="#524EB7" stroke="#524EB7" stroke-width="0.4"></path>
        <path d="M31.714 26.229L31.6162 25.7466H34.3957H34.3963H34.3981H41.4892H41.491H41.4916H45.4841C46.0109 25.7466 46.4659 25.3735 46.5733 24.8565L46.5734 24.8562L48.5148 15.4344L48.515 15.4337C48.5815 15.1054 48.4989 14.7639 48.2876 14.5035C48.0776 14.2424 47.7597 14.0911 47.425 14.0911H29.2592L28.6632 11.1423C28.6632 11.1423 28.6632 11.1422 28.6631 11.1422C28.5592 10.6249 28.1084 10.2529 27.5815 10.2485L27.5811 10.2485L24.7273 10.2302L24.7273 10.2302H24.726H24.7199C24.1075 10.2302 23.6121 10.7275 23.6076 11.3404H23.6076L23.6076 11.3411C23.6054 11.9528 24.0996 12.4578 24.7147 12.4608L24.7245 12.4609L24.725 12.4608L26.6652 12.4737L27.2117 15.1765C27.2094 15.2584 27.2151 15.3433 27.2329 15.4298C27.233 15.4299 27.233 15.4301 27.233 15.4302L29.1376 24.8502C29.1376 24.8504 29.1377 24.8505 29.1377 24.8507C29.1545 24.9358 29.1821 25.0131 29.2144 25.0836L29.7157 27.5672L29.7158 27.5676C29.8217 28.0865 30.2759 28.4621 30.8052 28.4621H45.421C46.036 28.4621 46.5333 27.9612 46.5333 27.3456C46.5333 26.7299 46.036 26.229 45.421 26.229H31.714ZM39.0553 23.5128V16.3235H41.484L40.5171 23.5128H39.0553ZM36.832 16.3235L36.8314 23.5128H35.3697L34.4039 16.3235H36.832ZM46.0616 16.3235L44.5801 23.5128H42.7623L43.728 16.3235H46.0616ZM31.1642 23.5122L29.7121 16.3229H32.1593L33.125 23.5122H31.1642Z" fill="#524EB7" stroke="#524EB7" stroke-width="0.4"></path>
        <path d="M35.9908 30.5828C35.9915 29.3356 34.9814 28.3195 33.7385 28.3195C32.4961 28.3195 31.4875 29.3359 31.4875 30.5827C31.4875 31.8297 32.4961 32.8459 33.7385 32.8459C34.9815 32.8459 35.9908 31.8298 35.9908 30.5828ZM35.9908 30.5828L35.7908 30.5827H35.9908C35.9908 30.5828 35.9908 30.5828 35.9908 30.5828ZM33.7385 30.6111C33.7324 30.6111 33.7258 30.6088 33.7198 30.6027C33.7138 30.5966 33.7108 30.5891 33.7108 30.5815C33.7108 30.5639 33.725 30.5519 33.7385 30.5519C33.755 30.5519 33.7681 30.565 33.7681 30.5815C33.7681 30.5985 33.7553 30.6111 33.7385 30.6111Z" fill="#524EB7" stroke="#524EB7" stroke-width="0.4"></path>
        <path d="M45.4733 30.5832V30.5831C45.4726 29.3362 44.4634 28.32 43.2216 28.32C41.9786 28.32 40.9699 29.3363 40.9699 30.5832C40.9699 31.8297 41.9787 32.8453 43.2216 32.8453C44.4639 32.8453 45.4733 31.8292 45.4733 30.5832ZM43.2216 30.611C43.2057 30.611 43.1926 30.598 43.1926 30.582C43.1926 30.5651 43.2061 30.5524 43.2216 30.5524C43.2351 30.5524 43.2491 30.5642 43.2493 30.5815C43.249 30.5995 43.2346 30.611 43.2216 30.611Z" fill="#524EB7" stroke="#524EB7" stroke-width="0.4"></path>
    </symbol>
    <symbol fill="none" xmlns="http://www.w3.org/2000/svg" viewBox="0 0 122 122" id="promotion">
        <path d="M71.814 25.3248H71.714V25.4248V52.6892V52.7892H71.814H74.5633H74.6633V52.6892V25.4248V25.3248H74.5633H71.814Z" fill="#524EB7" stroke="#524EB7" stroke-width="0.2"></path>
        <path d="M71.814 93.5782H71.714V93.6782V120.943V121.043H71.814H74.5633H74.6633V120.943V93.6782V93.5782H74.5633H71.814Z" fill="#524EB7" stroke="#524EB7" stroke-width="0.2"></path>
        <path d="M25.2544 71.8021H25.1544V71.9021V74.6466V74.7466H25.2544H52.5672H52.6672V74.6466V71.9021V71.8021H52.5672H25.2544Z" fill="#524EB7" stroke="#524EB7" stroke-width="0.2"></path>
        <path d="M93.6289 71.8021H93.5289V71.9021V74.6466V74.7466H93.6289H120.942H121.042V74.6466V71.9021V71.8021H120.942H93.6289Z" fill="#524EB7" stroke="#524EB7" stroke-width="0.2"></path>
        <path d="M67.9717 34.9392L68.0642 34.9268L67.6977 32.1823L67.6846 32.0843L67.5865 32.0963C60.0512 33.0138 52.8851 36.1321 46.8215 41.0841L46.7471 41.1449L46.8048 41.2216L48.4546 43.4177L48.5167 43.5004L48.5972 43.4356C54.2666 38.8712 61.0314 35.9519 67.9782 35.0392L67.9717 34.9392Z" fill="#524EB7" stroke="#524EB7" stroke-width="0.2"></path>
        <path d="M34.7736 68.1592L34.8722 68.1715L34.8851 68.073C35.7993 61.1392 38.7245 54.5681 43.114 48.9083L43.1763 48.8279L43.0949 48.767L40.8949 47.1201L40.818 47.0626L40.7574 47.1371C35.9803 53.0068 32.8562 60.1595 31.7541 67.6795L31.7393 67.7806L31.8406 67.7933L34.7736 68.1592Z" fill="#524EB7" stroke="#524EB7" stroke-width="0.2"></path>
        <path d="M111.336 68.1297L111.371 68.1656L111.421 68.159L114.17 67.7931L114.27 67.7799L114.256 67.6803C111.683 49.1547 97.1668 34.6633 78.6078 32.2787L78.5091 32.2661L78.4959 32.3647L78.1294 35.1092L78.1161 35.2089L78.2159 35.2216C95.4013 37.412 108.931 50.9172 111.308 68.0735L111.313 68.106L111.336 68.1295L111.336 68.1297Z" fill="#524EB7" stroke="#524EB7" stroke-width="0.2"></path>
        <path d="M34.7902 78.1226L34.7732 78.0239L32.0229 78.3898L31.9242 78.4029L31.937 78.5017C34.3263 97.0276 49.0257 111.885 67.5851 114.27L67.6838 114.282L67.697 114.184L68.0635 111.439L68.0768 111.339L67.977 111.327C50.7917 109.136 37.0791 95.4481 34.8849 78.1106L34.7902 78.1226Z" fill="#524EB7" stroke="#524EB7" stroke-width="0.2"></path>
        <path d="M78.2281 111.422L78.1294 111.439L78.4959 114.183L78.5091 114.282L78.6078 114.269C97.1671 111.885 111.867 97.2102 114.256 78.5014L114.269 78.4027L114.17 78.3896L111.421 78.0245L111.321 78.0113L111.308 78.1111C109.115 95.4488 95.402 109.137 78.216 111.327L78.2281 111.422Z" fill="#524EB7" stroke="#524EB7" stroke-width="0.2"></path>
        <path d="M57.4358 52.382L57.4953 52.4611L57.575 52.4025C61.0461 49.8496 65.2457 48.0275 69.6267 47.4806L69.7268 47.4681L69.7134 47.3681L69.3469 44.6236L69.3339 44.5263L69.2363 44.5375C64.4517 45.0889 59.6683 47.109 55.8062 50.0471L55.727 50.1073L55.7867 50.1867L57.4358 52.382Z" fill="#524EB7" stroke="#524EB7" stroke-width="0.2"></path>
        <path d="M47.237 69.805L47.3369 69.8183L47.3494 69.7183C47.8974 65.3444 49.5406 61.3351 52.0962 57.8715L52.1552 57.7916L52.0757 57.7321L49.8757 56.0852L49.7964 56.0259L49.7362 56.1046C46.7923 59.962 44.9529 64.5528 44.4007 69.3285L44.3894 69.4261L44.4868 69.4391L47.237 69.805Z" fill="#524EB7" stroke="#524EB7" stroke-width="0.2"></path>
        <path d="M98.8746 69.7783L98.9093 69.8113L98.9568 69.8049L101.706 69.4391L101.805 69.4259L101.792 69.3272C100.137 56.473 89.8358 46.1917 76.9589 44.5378L76.8602 44.5251L76.847 44.6237L76.4805 47.3682L76.4671 47.468L76.567 47.4807C88.0708 48.9393 97.3829 58.0537 98.8442 69.7181L98.8486 69.7535L98.8745 69.7781L98.8746 69.7783Z" fill="#524EB7" stroke="#524EB7" stroke-width="0.2"></path>
        <path d="M47.321 76.4063L47.2861 76.3714L47.2371 76.3779L44.4878 76.7438L44.3893 76.7569L44.4018 76.8555C46.0573 89.892 56.3578 100.174 69.2351 101.828L69.3338 101.84L69.3469 101.742L69.7135 98.9973L69.7268 98.8973L69.6267 98.8848C57.9417 97.4263 48.8112 88.131 47.3497 76.4648L47.3454 76.4307L47.3212 76.4064L47.321 76.4063Z" fill="#524EB7" stroke="#524EB7" stroke-width="0.2"></path>
        <path d="M101.656 76.7364L98.9566 76.3772L98.8567 76.3639L98.8442 76.4639C97.3839 88.1281 88.0709 97.2433 76.5655 98.8842L76.4673 98.8982L76.4805 98.9965L76.847 101.741L76.8602 101.84L76.9589 101.827C89.8359 100.174 100.135 89.8915 101.792 76.8547L101.83 76.5545L101.656 76.7364Z" fill="#524EB7" stroke="#524EB7" stroke-width="0.2"></path>
        <path d="M72.1092 74.1689L72.1798 74.2395L72.2505 74.1689L74.2668 72.1562L74.3378 72.0853L74.2666 72.0145L33.794 31.796L35.9836 20.6864L35.9939 20.634L35.9561 20.5963L16.3425 1.01736L16.2105 0.885549L16.1738 1.06849L13.6205 13.8123L1.03777 16.361L0.854977 16.398L0.986969 16.5297L20.6006 36.1086L20.6383 36.1463L20.6905 36.136L31.8202 33.9501L72.1092 74.1689ZM21.4369 33.0032L6.75911 18.1699L16.1063 16.375L16.1729 16.3623L16.1857 16.2957L17.9835 6.96533L32.8435 21.7991L31.033 31.1954L21.4369 33.0032Z" fill="#524EB7" stroke="#524EB7" stroke-width="0.2"></path>
        <path d="M62.6817 69.4291L62.5856 69.3948L62.5532 69.4916C62.1862 70.5907 61.815 71.8846 61.815 73.1827C61.815 79.2764 66.8093 84.2614 72.9131 84.2614C79.0169 84.2614 84.0112 79.2762 84.0112 73.1827C84.0112 67.0893 79.0169 62.1041 72.9131 62.1041C71.6217 62.1041 70.3213 62.2884 69.2025 62.8464L69.1231 62.886L69.153 62.9695L70.0697 65.5314L70.1047 65.629L70.201 65.5906C71.1068 65.229 72.011 65.0485 72.9133 65.0485C77.441 65.0485 81.0622 68.6633 81.0622 73.1828C81.0622 77.7023 77.4412 81.3172 72.9133 81.3172C68.3853 81.3172 64.7643 77.7023 64.7643 73.1828C64.7643 72.2814 64.9452 71.3789 65.3073 70.4755L65.346 70.379L65.2481 70.3441L62.6817 69.4291Z" fill="#524EB7" stroke="#524EB7" stroke-width="0.2"></path>
    </symbol>
    <symbol fill="none" xmlns="http://www.w3.org/2000/svg" viewBox="0 0 66 70" id="search">
        <path d="M51.8955 4.25781H49.7119C49.1114 4.25781 48.6201 4.74912 48.6201 5.34961C48.6201 5.9501 49.1114 6.44141 49.7119 6.44141H51.8955C52.496 6.44141 52.9873 5.9501 52.9873 5.34961C52.9873 4.74912 52.496 4.25781 51.8955 4.25781Z" fill="#524EB7"></path>
        <path d="M45.3447 4.25781H43.1611C42.5606 4.25781 42.0693 4.74912 42.0693 5.34961C42.0693 5.9501 42.5606 6.44141 43.1611 6.44141H45.3447C45.9452 6.44141 46.4365 5.9501 46.4365 5.34961C46.4365 4.74912 45.9452 4.25781 45.3447 4.25781Z" fill="#524EB7"></path>
        <path d="M59.8117 40.3419C59.2112 40.3419 58.7199 40.8332 58.7199 41.4337V53.3888H7.4053V41.4337C7.4053 40.8332 6.91399 40.3419 6.31349 40.3419C5.713 40.3419 5.22169 40.8332 5.22169 41.4337V53.3888H3.03809V25.1118H6.25884C6.85933 25.1118 7.35064 24.6205 7.35064 24.02C7.35064 23.4195 6.85933 22.9282 6.25884 22.9282H3.03809C1.83711 22.9282 0.854492 23.9108 0.854492 25.1118V62.0696C0.854492 63.2706 1.83711 64.2532 3.03809 64.2532H27.0577V67.6923H22.0354C21.4349 67.6923 20.9436 68.1836 20.9436 68.7841C20.9436 69.3846 21.4349 69.8759 22.0354 69.8759H44.0349C44.6354 69.8759 45.1267 69.3846 45.1267 68.7841C45.1267 68.1836 44.6354 67.6923 44.0349 67.6923H39.0673V64.2532H63.0869C64.2878 64.2532 65.2705 63.2706 65.2705 62.0696V25.1118C65.2705 23.9108 64.2878 22.9282 63.0869 22.9282H59.7568C59.1563 22.9282 58.665 23.4195 58.665 24.02C58.665 24.6205 59.1563 25.1118 59.7568 25.1118H63.0869V53.3888H60.9033V41.4337C60.9033 40.8332 60.4119 40.3419 59.8115 40.3419H59.8117ZM36.8839 67.5283H29.2413V64.2529H36.8839V67.5283ZM63.0871 55.5732V62.124H3.03809V55.5732H63.0871Z" fill="#524EB7"></path>
        <path d="M57.6279 59.9405H59.8115C60.412 59.9405 60.9033 59.4491 60.9033 58.8486C60.9033 58.2481 60.412 57.7568 59.8115 57.7568H57.6279C57.0274 57.7568 56.5361 58.2481 56.5361 58.8486C56.5361 59.4491 57.0274 59.9405 57.6279 59.9405Z" fill="#524EB7"></path>
        <path d="M54.8976 0H11.2256C10.0246 0 9.04199 0.98262 9.04199 2.1836V48.5857C9.04199 49.7867 10.0246 50.7693 11.2256 50.7693H54.8976C56.0986 50.7693 57.0812 49.7867 57.0812 48.5857V2.1836C57.0812 0.98262 56.0986 0 54.8976 0ZM11.2256 2.1836H54.8976V8.7344H11.2256V2.1836ZM11.2256 48.5857V10.918H54.8976V48.5857H11.2256Z" fill="#524EB7"></path>
        <path d="M37.484 35.1008C37.0472 34.8279 36.4468 34.9371 36.1192 35.3192C35.3003 36.2472 34.0993 36.6294 31.9703 36.6294C29.8414 36.6294 28.6403 36.2472 27.8215 35.3192C27.4939 34.9371 26.8934 34.8279 26.4567 35.1008C22.7992 37.2844 20.7793 40.7235 20.7793 44.7633C20.7793 45.3638 21.2706 45.8551 21.8711 45.8551H42.07C42.6705 45.8551 43.1618 45.3638 43.1618 44.7633C43.1618 40.7237 41.1419 37.2844 37.4845 35.1008H37.484ZM23.0173 43.6715C23.2903 41.1059 24.7095 38.813 26.8931 37.3937C28.4217 38.5947 30.3869 38.8131 31.9701 38.8131C33.5532 38.8131 35.5185 38.6493 37.047 37.3937C39.1759 38.8131 40.5954 41.1059 40.9228 43.6715H23.0173Z" fill="#524EB7"></path>
        <path d="M27.0029 32.0991C29.3502 34.8286 33.4991 35.1562 36.2832 32.8088C39.0674 30.4614 39.3403 26.3126 36.9929 23.5285C34.6456 20.799 30.4967 20.4715 27.7126 22.8188C25.5836 24.6204 24.8739 27.6227 25.9111 30.1884L19.9061 33.9552C19.4148 34.2827 19.2511 34.9378 19.5786 35.4837C19.9061 36.0296 20.5612 36.1388 21.1071 35.8113L27.0029 32.0991ZM31.9705 23.4739C34.3725 23.4739 36.3377 25.4391 36.3377 27.8411C36.3377 30.2431 34.3725 32.2083 31.9705 32.2083C29.5686 32.2083 27.6033 30.2431 27.6033 27.8411C27.6033 25.4391 29.5686 23.4739 31.9705 23.4739Z" fill="#524EB7"></path>
    </symbol>
    <symbol fill="none" xmlns="http://www.w3.org/2000/svg" viewBox="0 0 70 70" id="shop">
        <path d="M69.8809 18.3901V18.3073V18.141V17.9747C69.8809 17.8919 69.8809 17.8919 69.798 17.8085C69.798 17.7256 69.7152 17.7256 69.7152 17.6422C69.7152 17.6422 69.7152 17.5594 69.6324 17.5594L64.8982 9.66969V1.78001C64.8982 0.866421 64.1508 0.119141 63.2373 0.119141H6.76273C5.84914 0.119141 5.10186 0.866465 5.10186 1.78001V9.66969L0.367666 17.5594C0.367666 17.5594 0.367666 17.6422 0.284824 17.6422C0.284824 17.7251 0.201983 17.7251 0.201983 17.8085C0.201983 17.8913 0.201982 17.8913 0.119141 17.9747V18.141V18.3073V18.3901V18.5564V18.7226C0.119141 22.377 2.11251 25.6159 5.10249 27.3596L5.10133 58.2546C5.10133 59.1681 5.84865 59.9154 6.7622 59.9154H28.5215L26.279 66.5596H23.3731C22.4595 66.5596 21.7122 67.307 21.7122 68.2205C21.7122 69.1341 22.4596 69.8814 23.3731 69.8814H46.6273C47.5409 69.8814 48.2882 69.1341 48.2882 68.2205C48.2882 67.307 47.5409 66.5596 46.6273 66.5596H43.6375L41.395 59.9154H63.2374C64.1509 59.9154 64.8982 59.1681 64.8982 58.2546L64.8988 27.4427C67.8886 25.6983 69.8822 22.4593 69.8822 18.8057V18.6394C69.8816 18.5566 69.8816 18.4732 69.8816 18.3903L69.8809 18.3901ZM8.42327 3.44096H61.5758V8.42431H8.42327V3.44096ZM7.67594 11.746H62.2403L65.2302 16.7294H4.68611L7.67594 11.746ZM49.7827 20.0511C49.2011 23.1239 46.5437 25.4491 43.3048 25.4491C40.0658 25.4491 37.3251 23.1237 36.8268 20.0511H49.7827ZM33.1726 20.0511C32.5909 23.1239 29.9336 25.4491 26.6946 25.4491C23.4556 25.4491 20.7149 23.1237 20.2166 20.0511H33.1726ZM3.60645 20.0511H16.6457C16.0641 23.1239 13.4067 25.4491 10.1678 25.4491C6.92819 25.4497 4.10461 23.1243 3.60645 20.0511ZM29.8505 66.5596L32.093 59.9154H37.9899L40.2325 66.5596H29.8505ZM61.5759 56.5937H8.4234V51.6103H61.5759V56.5937ZM61.5759 48.2886H8.4234V28.6055C9.00504 28.6884 9.50324 28.7718 10.0843 28.7718C13.5724 28.7718 16.5622 27.0274 18.3894 24.2873C20.2165 26.9453 23.2063 28.7718 26.6944 28.7718C30.1826 28.7718 33.1724 27.0274 34.9995 24.2873C36.8266 26.9453 39.8165 28.7718 43.3046 28.7718C46.7927 28.7718 49.7826 27.0274 51.6097 24.2873C53.4368 26.9453 56.4266 28.7718 59.9148 28.7718C60.4964 28.7718 60.9946 28.6889 61.5756 28.6055L61.5759 48.2886ZM59.9151 25.4496C56.6761 25.4496 53.9354 23.1242 53.4371 20.0516H66.4764C65.8947 23.1243 63.1541 25.4496 59.9151 25.4496Z" fill="#524EB7"></path>
    </symbol>
    <symbol fill="none" xmlns="http://www.w3.org/2000/svg" viewBox="0 0 70 64" id="website">
        <path d="M64.2741 0.474121H5.72628C2.62196 0.474121 0.0966797 2.9994 0.0966797 6.10372V44.385C0.0966797 47.4893 2.62196 50.0146 5.72628 50.0146H23.0448L20.7558 54.5926C18.0003 54.956 15.859 57.2948 15.859 60.1478V63.5256H54.1403V60.1478C54.1403 57.2948 51.999 54.956 49.2435 54.5926L46.9545 50.0146H64.273C67.3774 50.0146 69.9026 47.4893 69.9026 44.385V6.10372C69.9026 2.9994 67.3774 0.474121 64.273 0.474121H64.2741ZM51.889 60.1478V61.2737H18.1114V60.1478C18.1114 58.2855 19.6268 56.7701 21.4891 56.7701H48.5112C50.3735 56.7701 51.889 58.2855 51.889 60.1478ZM46.6897 54.5182H23.3104L25.5623 50.0146H44.4365L46.6897 54.5182ZM67.6523 44.385C67.6523 46.2473 66.1369 47.7627 64.2746 47.7627H5.72679C3.86446 47.7627 2.34903 46.2473 2.34903 44.385V6.10372C2.34903 4.24138 3.86446 2.72596 5.72679 2.72596H64.2746C66.1369 2.72596 67.6523 4.24138 67.6523 6.10372V44.385Z" fill="#524EB7"></path>
        <path d="M63.1484 4.97803H6.85242C5.6104 4.97803 4.60059 5.98784 4.60059 7.22987V38.7556C4.60059 39.9976 5.6104 41.0074 6.85242 41.0074H63.1484C64.3904 41.0074 65.4002 39.9976 65.4002 38.7556V7.22987C65.4002 5.98784 64.3904 4.97803 63.1484 4.97803ZM42.8818 34.8773V30.8738H49.6374V34.8773C48.2973 35.6589 47.3855 37.0954 47.3855 38.7552H45.1337C45.1337 37.0956 44.2219 35.659 42.8818 34.8773ZM51.8892 36.5034H54.141V34.2515H51.8892V28.6219H40.63V34.2515H38.3782V36.5034H40.63C41.872 36.5034 42.8818 37.5132 42.8818 38.7552H36.1263V30.1329C36.1263 29.0979 36.828 28.1998 37.8323 27.9483L45.1337 26.1232V22.8459L44.5742 22.5207C43.5147 21.9035 42.8819 20.8168 42.8819 19.6144V17.5968C42.8819 15.7289 44.232 14.1491 45.9545 13.9983C46.9241 13.9159 47.8359 14.2255 48.5421 14.8719C49.2378 15.5103 49.6374 16.419 49.6374 17.3625V19.6143C49.6374 20.8166 49.0045 21.9033 47.945 22.5201L47.3856 22.8458V26.1236L54.6869 27.9496C55.6912 28.1994 56.3929 29.0982 56.3929 30.1326V38.755H49.6374C49.6374 37.5129 50.6472 36.5031 51.8892 36.5031L51.8892 36.5034ZM58.6447 38.7552V30.1329C58.6447 28.0625 57.2419 26.2655 55.2332 25.7644L49.6374 24.3651V24.0946C51.0402 23.0376 51.8892 21.3743 51.8892 19.6146V17.3628C51.8892 15.79 51.2237 14.2766 50.0631 13.2125C48.9036 12.1494 47.3348 11.6161 45.7601 11.7553C42.883 12.0047 40.6301 14.5707 40.6301 17.597V19.6146C40.6301 21.3744 41.4791 23.0386 42.882 24.0946V24.3651L37.2861 25.7644C35.2776 26.2656 33.8746 28.0625 33.8746 30.1329V38.7552H6.85255V7.22948H63.1485L63.1495 38.7552H58.6447Z" fill="#524EB7"></path>
        <path d="M60.8965 43.2593H63.1483V45.5111H60.8965V43.2593Z" fill="#524EB7"></path>
        <path d="M56.3926 43.2593H58.6444V45.5111H56.3926V43.2593Z" fill="#524EB7"></path>
        <path d="M51.8887 43.2593H54.1405V45.5111H51.8887V43.2593Z" fill="#524EB7"></path>
        <path d="M6.85254 43.2593H15.8599V45.5111H6.85254V43.2593Z" fill="#524EB7"></path>
        <path d="M18.1113 43.2593H20.3632V45.5111H18.1113V43.2593Z" fill="#524EB7"></path>
        <path d="M11.3555 36.5033H22.6147V25.2441H11.3555V36.5033ZM13.6073 27.496H20.3628V34.2515H13.6073V27.496Z" fill="#524EB7"></path>
        <path d="M25.1963 8.68506L22.1487 11.7331H11.3555V22.9923H22.6147V14.4509L26.7887 10.2769L25.1963 8.68506ZM20.363 20.7405H13.6074V13.985H19.897L16.9852 16.8968L15.5296 15.4412L13.9377 17.0331L16.9853 20.0806L20.3631 16.7029L20.363 20.7405Z" fill="#524EB7"></path>
        <path d="M58.6445 21.8667H60.8964V24.1185H58.6445V21.8667Z" fill="#524EB7"></path>
        <path d="M56.3926 11.7333H58.6444V19.6147H60.8963V9.48145H56.3926V11.7333Z" fill="#524EB7"></path>
    </symbol>
    <!-- <symbol width="32" height="11" viewBox="0 0 32 11" fill="none" xmlns="http://www.w3.org/2000/svg" id="arrow">
       <path d="M31.3001 5.50009L31.3001 5.50177C31.299 5.56577 31.2924 5.63521 31.2662 5.70665C31.2398 5.7785 31.1955 5.84707 31.1261 5.91362L27.0251 10.1499C26.8003 10.3831 26.4028 10.4054 26.159 10.1723C25.9291 9.95283 25.9112 9.55684 26.1362 9.32544L31.3001 5.50009ZM31.3001 5.50009C31.3001 5.42407 31.2771 5.3429 31.2468 5.27335C31.2165 5.20373 31.1744 5.13569 31.1273 5.08751M31.3001 5.50009L31.1273 5.08751M31.1273 5.08751C31.1272 5.08742 31.1272 5.08734 31.1271 5.08726L27.025 0.849593L27.024 0.848614C26.796 0.619483 26.4259 0.593724 26.1622 0.824413L26.1621 0.824438C25.9171 1.03897 25.914 1.446 26.1363 1.67454L29.2649 4.9014L1.20029 4.9014C0.864404 4.9014 0.587519 5.16683 0.587519 5.49993C0.587519 5.83326 0.86464 6.09846 1.20029 6.09846L29.2649 6.09846L26.1363 9.32532L31.1273 5.08751Z" fill="#524EB7" stroke="#524EB7" stroke-width="0.2"/>
    </symbol> -->
</svg>