<svg width="0" height="0" class="hidden"><symbol fill="none" xmlns="http://www.w3.org/2000/svg" viewBox="0 0 70 70" id="agency"><path d="M69.93 64.52V24.03a1.4 1.4 0 1 0-2.8 0v40.49a2.545 2.545 0 0 1-2.543 2.541H5.413A2.545 2.545 0 0 1 2.87 64.52V24.03a1.4 1.4 0 0 0-2.8 0v40.49a5.348 5.348 0 0 0 5.343 5.341h59.174a5.35 5.35 0 0 0 5.343-5.341ZM69.93 5.95A5.818 5.818 0 0 0 64.123.14H5.882a5.816 5.816 0 0 0-5.81 5.81v13.416a1.402 1.402 0 0 0 1.4 1.4h67.06a1.4 1.4 0 0 0 1.4-1.4L69.93 5.95Zm-2.8 12.017H2.87V5.95a3.012 3.012 0 0 1 3.01-3.01h58.24a3.01 3.01 0 0 1 2.127.882c.565.564.882 1.33.883 2.128v12.017Z" fill="#524EB7"/><path d="M37.4 28.994h21.942a1.4 1.4 0 0 0 0-2.8H37.4a1.4 1.4 0 1 0 0 2.8ZM8.738 47.234H30.68a1.4 1.4 0 1 0 0-2.8H8.738a1.4 1.4 0 1 0 0 2.8ZM8.738 53.132H30.68a1.4 1.4 0 0 0 0-2.8H8.738a1.4 1.4 0 1 0 0 2.8ZM8.738 59.028H30.68a1.4 1.4 0 1 0 0-2.8H8.738a1.4 1.4 0 0 0 0 2.8ZM37.4 35.166h21.942a1.4 1.4 0 0 0 0-2.8H37.4a1.4 1.4 0 1 0 0 2.8ZM36 57.628a1.4 1.4 0 0 0 1.4 1.4h21.942a1.4 1.4 0 0 0 1.4-1.4v-17.28a1.4 1.4 0 0 0-1.4-1.4H37.4a1.402 1.402 0 0 0-1.4 1.4v17.28Zm2.8-15.88h19.141v14.48H38.8v-14.48ZM8.738 40.24H30.68a1.4 1.4 0 0 0 1.4-1.4V26.36a1.4 1.4 0 0 0-1.4-1.4H8.738a1.402 1.402 0 0 0-1.4 1.4v12.48a1.401 1.401 0 0 0 1.4 1.4Zm1.4-12.48h19.141v9.68H10.138v-9.68ZM27.697 9.498H9.595a1.4 1.4 0 0 0 0 2.8h18.102a1.4 1.4 0 0 0 0-2.8ZM38.462 9.498h-4.457a1.4 1.4 0 0 0 0 2.8h4.457a1.4 1.4 0 0 0 0-2.8ZM49.433 9.498h-4.456a1.4 1.4 0 1 0 0 2.8h4.456a1.4 1.4 0 0 0 0-2.8ZM60.404 9.498h-4.457a1.4 1.4 0 1 0 0 2.8h4.457a1.4 1.4 0 0 0 0-2.8Z" fill="#524EB7"/></symbol><symbol fill="none" xmlns="http://www.w3.org/2000/svg" viewBox="0 0 118 120" id="audit"><path d="M38.583 64.316c15.004-2.745 26.532-15.92 26.532-31.84C65.115 14.544 50.659.09 32.728.09 14.978.272.523 14.727.523 32.476c0 15.92 11.528 29.093 26.532 31.84v11.528h-4.941v33.302c0 5.856 4.757 10.796 10.796 10.796 5.856 0 10.796-4.757 10.796-10.796V75.844h-4.94V64.316h-.183ZM3.267 32.476c0-16.285 13.357-29.643 29.643-29.643 16.285 0 29.643 13.358 29.643 29.643S49.196 62.12 32.91 62.12A29.52 29.52 0 0 1 3.267 32.476Zm37.51 46.112v30.559c0 4.391-3.66 8.051-8.05 8.051-4.392 0-8.052-3.66-8.052-8.051V78.588h4.94V64.682c1.098.183 2.013.183 3.11.183 1.098 0 2.013 0 3.111-.183v13.906h4.941Z" fill="#524EB7"/><path d="M31.447 107.499h2.744v2.744h-2.744v-2.744ZM31.447 94.69h2.744v2.744h-2.744v-2.745ZM31.447 101.093h2.744v2.745h-2.744v-2.745ZM112.325 103.289v-56.54h-10.979v56.54h-4.208v-38.61H86.159v38.425H81.95v-28.91H70.972v29.093h-3.843V84.44H56.15v18.664h-4.94v2.744h66.239v-2.744h-5.123l-.001.185Zm-53.43 0v-15.92h5.489v15.92h-5.49Zm15.003 0V76.94h5.49v26.349h-5.49Zm15.188 0V67.425h5.49v35.681h-5.49v.183Zm15.005 0V49.493h5.49v53.796h-5.49ZM38.216 52.422c1.83-.55 3.477-1.281 5.123-2.196l4.392 2.927 6.038-6.038-3.11-4.209c.915-1.646 1.647-3.293 2.196-5.123l5.124-.916v-8.6l-5.124-.915c-.55-1.83-1.281-3.477-2.196-5.124l2.928-4.39-6.039-6.04-4.209 2.929a34.418 34.418 0 0 0-5.49-2.196l-.914-5.124h-8.6l-.916 5.124c-1.83.55-3.477 1.281-5.123 2.196L17.904 11.8 12.05 18.02l2.928 4.209c-.915 1.647-1.647 3.294-2.196 5.124l-5.124.915v8.6l5.124.915c.55 1.83 1.281 3.477 2.196 5.124l-2.928 4.391 6.039 6.039 4.208-2.928c1.647.915 3.294 1.647 5.124 2.196l.915 5.124h8.6l1.28-5.308Zm-2.379-2.196-.915 4.757h-4.025l-.915-4.575-.915-.365c-2.196-.366-4.025-1.28-5.855-2.379l-.732-.549-3.843 2.745-2.928-2.745 2.745-3.843-.55-.731c-1.097-1.83-2.012-3.843-2.561-5.856l-.184-.915-4.757-.915v-4.026l4.575-.915.183-.915c.366-2.013 1.281-4.025 2.379-5.855l.549-.732-2.561-4.208 2.744-2.928 3.843 2.745.732-.55c1.83-1.28 3.843-2.012 5.855-2.561l.916-.184.915-4.757h4.025l.915 4.575.915.183c2.196.366 4.209 1.281 5.856 2.379l.732.549 4.024-2.379 2.745 2.745-2.745 4.025.55.732c1.28 1.83 2.012 3.843 2.561 5.856l.184.915 4.757.915v4.025l-4.575.915-.183.915c-.366 2.197-1.281 4.21-2.379 5.856l-.55.732 2.745 3.843-2.744 2.744-4.026-2.562-.731.55c-1.83 1.097-3.843 2.012-5.856 2.562l-.915.182Z" fill="#524EB7"/><path d="M32.728 21.314c-6.222 0-11.163 5.124-11.163 11.162 0 6.222 5.124 11.163 11.163 11.163 6.221 0 11.162-5.124 11.162-11.163 0-6.039-4.94-11.162-11.162-11.162Zm.182 19.762v1.463-1.463c-4.757 0-8.417-3.843-8.417-8.417 0-4.575 3.66-8.417 8.417-8.417 4.575 0 8.417 3.843 8.417 8.417s-3.842 8.234-8.417 8.417Z" fill="#524EB7"/></symbol><symbol fill="none" xmlns="http://www.w3.org/2000/svg" viewBox="0 0 120 114" id="certificate"><path d="M50.866 63.365c1.827-.183 3.288-1.279 4.202-2.923.73-1.279.913-2.922.548-4.383-.183-.73-.548-1.28-.913-1.827 2.009-.914 3.287-2.923 3.287-5.297 0-2.375-1.46-4.384-3.288-5.297 1.28-1.827 1.461-4.202.366-6.21-1.096-2.01-3.288-3.106-5.48-2.923 0-.731 0-1.28-.184-2.01-.365-1.46-1.46-2.74-2.74-3.47-2.008-1.096-4.566-.914-6.21.183-.913-2.01-2.922-3.471-5.297-3.471-2.374 0-4.383 1.46-5.296 3.288-1.828-1.28-4.384-1.461-6.211-.366-2.01 1.096-3.105 3.471-2.923 5.48-2.192-.183-4.383.914-5.48 2.923-1.095 2.01-.913 4.384.365 6.21-2.009.914-3.287 2.923-3.287 5.297 0 2.375 1.46 4.384 3.287 5.297-1.278 1.827-1.46 4.202-.365 6.211.914 1.46 2.375 2.557 4.201 2.923l-7.305 21.188 7.672-1.644 4.931 5.48 6.211-17.9c1.096 1.095 2.557 1.827 4.201 1.827 1.644 0 3.105-.73 4.019-1.644l6.21 17.718 4.932-5.48 7.671 1.644-7.124-20.824ZM23.65 82.727l-2.74-3.106-4.567.914 4.932-14.248c.548 1.096 1.279 2.01 2.374 2.74 1.461.914 3.105.914 4.749.548L23.65 82.727Zm11.508-13.335c-1.644 0-3.105-1.46-3.105-3.105V65.556l-.914-.183-1.644-.365c0 .183 0 .183-.183.365 0 .183-.183.183-.183.365-.73 1.461-2.74 2.01-4.201 1.096-1.46-.914-2.01-2.74-1.096-4.202 0-.183.183-.183.183-.365 0 0 .183-.183.183-.365l-2.009-1.827s-.183.183-.365.183c0 0-.183.183-.365.183-1.461.914-3.471.365-4.202-1.096-.913-1.46-.365-3.47 1.096-4.2.183 0 .183-.184.365-.184.183 0 .366-.183.366-.183l-.73-2.557h-.731c-1.644 0-3.105-1.461-3.105-3.105s1.46-3.105 3.105-3.105H18.354l.548-2.74s-.183 0-.183-.183c.182.001 0 .001 0-.181-1.462-.914-2.01-2.74-1.096-4.201.913-1.461 2.74-2.01 4.2-1.096.184 0 .184.183.366.183.183 0 .183.183.365.183l2.01-2.01c-.183-.182-.183-.182-.183-.364 0-.183-.183-.183-.183-.366-.914-1.46-.366-3.288 1.095-4.201 1.461-.913 3.471-.365 4.201 1.096 0 .183.183.183.183.365 0 .183.183.365.183.365l2.558-.73V31.4c0-1.644 1.46-3.105 3.105-3.105 1.644 0 3.105 1.461 3.105 3.105v.366l-.183 1.095 2.374.73.548-1.095c0-.183.183-.183.183-.365.73-1.461 2.74-2.01 4.202-1.096a2.9 2.9 0 0 1 1.46 1.827c.183.73.184 1.644-.365 2.374 0 .183-.183.183-.183.366s-.183.183-.365.365l2.01 1.827.182-.183c.183 0 .183-.183.365-.183 1.461-.914 3.471-.365 4.202 1.095.913 1.461.365 3.471-1.096 4.202-.183 0-.183.183-.365.183-.183 0-.365.183-.365.183l.73 2.557h.731c1.643 0 3.104 1.46 3.104 3.105 0 1.644-1.46 3.105-3.104 3.105h-.366l-1.644-.183v1.279l-.365 1.095 1.096.548c.183 0 .365.184.365.184a2.9 2.9 0 0 1 1.46 1.827c.184.73.184 1.644-.364 2.374-.73 1.46-2.74 2.009-4.202 1.096-.183 0-.183-.184-.365-.184 0 0-.183-.182-.365-.182l-1.827 2.009.183.183c0 .183.183.183.183.365.365.73.548 1.644.365 2.374-.183.73-.73 1.461-1.46 1.827-1.462.914-3.471.365-4.202-1.095 0-.183-.183-.183-.183-.366s-.183-.365-.183-.365l-2.557.73v.731c0 1.826-1.46 3.287-3.104 3.287Zm14.247 10.229-2.923 3.288-4.566-13.334c1.644.548 3.47.365 4.931-.365 1.096-.548 1.828-1.461 2.375-2.557l4.748 14.064-4.565-1.096Z" fill="#524EB7"/><path d="M47.396 48.933c0-6.758-5.48-12.238-12.239-12.238-6.757 0-12.238 5.48-12.238 12.238 0 6.758 5.48 12.238 12.238 12.238 6.759 0 12.239-5.48 12.239-12.238ZM35.157 58.43c-5.114 0-9.498-4.2-9.498-9.498 0-5.115 4.201-9.498 9.498-9.498 5.115 0 9.499 4.2 9.499 9.498 0 5.115-4.201 9.498-9.498 9.498Z" fill="#524EB7"/><path d="M112.972.529H7.03a6.937 6.937 0 0 0-6.94 6.94v99.001a6.938 6.938 0 0 0 6.94 6.941h105.942a6.938 6.938 0 0 0 6.941-6.941V7.288c0-3.837-3.106-6.76-6.941-6.76V.53ZM7.028 3.269H112.97c2.193 0 4.202 1.827 4.202 4.202v6.392H3.01V7.288c0-2.193 1.827-4.019 4.018-4.019Zm105.944 107.038H7.03c-2.192 0-4.201-1.827-4.201-4.201V16.604H116.99v89.502c.182 2.375-1.827 4.201-4.018 4.201Z" fill="#524EB7"/><path d="M7.577 7.47h2.74v2.74h-2.74V7.47ZM13.97 7.47h2.739v2.74h-2.74V7.47ZM20.364 7.47h2.74v2.74h-2.74V7.47ZM73.15 35.235h37.811v2.74h-37.81v-2.74ZM65.845 47.472h45.117v2.74H65.845v-2.74ZM79.543 59.892h31.417v2.74H79.544v-2.74ZM74.612 72.132h36.167v2.74H74.612v-2.74ZM65.845 84.369h45.117v2.74H65.845v-2.74ZM51.78 96.79h59v2.74h-59v-2.74Z" fill="#524EB7"/></symbol><symbol fill="none" xmlns="http://www.w3.org/2000/svg" viewBox="0 0 72 72" id="corp-website"><path d="M2.136 70.995h67.728a1.13 1.13 0 0 0 1.13-1.13V2.136a1.13 1.13 0 0 0-1.13-1.131H2.136c-.624 0-1.13.506-1.13 1.13v67.728c0 .624.506 1.13 1.13 1.13ZM68.733 3.267v65.467H3.266V3.267h65.467Z" fill="#524EB7" stroke="#524EB7" stroke-width=".2"/><path d="M2.136 15.045h67.728a1.131 1.131 0 0 0 0-2.262H2.136a1.131 1.131 0 0 0 0 2.262Z" fill="#524EB7" stroke="#524EB7" stroke-width=".2"/><path d="M21.618 13.914a1.13 1.13 0 0 0 2.261 0V2.135a1.131 1.131 0 0 0-2.261 0v11.779ZM38.944 9.156h30.92a1.131 1.131 0 0 0 0-2.261h-30.92a1.13 1.13 0 0 0 0 2.26ZM33.727 7.225a1.14 1.14 0 0 0-.33.8c0 .297.12.59.33.8l.07-.071-.07.07c.21.21.502.331.8.331.297 0 .59-.12.8-.33.21-.21.33-.503.33-.8 0-.298-.12-.59-.33-.8h-.001a1.143 1.143 0 0 0-.8-.33c-.297 0-.589.12-.799.33ZM8.026 41.547h55.949a1.13 1.13 0 0 0 1.13-1.13V19.805c0-.625-.506-1.131-1.13-1.131H8.025c-.623 0-1.13.506-1.13 1.13v20.613c0 .624.507 1.13 1.13 1.13Zm54.818-20.612v18.351H9.155V20.935h53.688Z" fill="#524EB7" stroke="#524EB7" stroke-width=".2"/><path d="M13.915 35.658h44.17a1.13 1.13 0 0 0 0-2.26h-44.17a1.13 1.13 0 0 0 0 2.26Z" fill="#524EB7" stroke="#524EB7" stroke-width=".2"/><path d="M23.28 25.066 17.392 33.9a1.13 1.13 0 0 0 .84 1.754v.004h.1c.364 0 .723-.176.941-.503l5.554-8.33h10.705l8.503 8.502a1.131 1.131 0 0 0 1.599-1.6L36.8 24.895a1.13 1.13 0 0 0-.8-.33H24.222c-.378 0-.731.188-.94.502Z" fill="#524EB7" stroke="#524EB7" stroke-width=".2"/><path d="M53.67 35.658a1.13 1.13 0 0 1-.906-.452l-4.078-5.437h-9.741a1.13 1.13 0 0 1 0-2.262H49.25c.356 0 .691.168.905.453l3.513 7.698Zm0 0a1.13 1.13 0 0 0 .903-1.81l-4.417-5.888 3.513 7.698ZM9.496 53.327h14.725c.624 0 1.13-.507 1.13-1.131v-5.89a1.13 1.13 0 0 0-1.13-1.13H9.496a1.13 1.13 0 0 0-1.13 1.13v5.89c0 .624.506 1.13 1.13 1.13Zm13.594-5.89v3.628H10.628v-3.628H23.09ZM30.11 47.437h33.865a1.131 1.131 0 0 0 0-2.261H30.11a1.13 1.13 0 0 0 0 2.261ZM30.11 53.327h33.865a1.13 1.13 0 0 0 0-2.261H30.11a1.131 1.131 0 0 0 0 2.26ZM9.496 65.105h14.725a1.13 1.13 0 0 0 1.13-1.13v-5.89a1.13 1.13 0 0 0-1.13-1.13H9.496a1.13 1.13 0 0 0-1.13 1.13v5.89c0 .624.506 1.13 1.13 1.13Zm13.594-5.889v3.628H10.628v-3.628H23.09ZM30.11 59.216h33.865a1.131 1.131 0 0 0 0-2.261H30.11a1.13 1.13 0 0 0 0 2.261ZM30.11 65.106h33.865a1.13 1.13 0 0 0 0-2.262H30.11a1.131 1.131 0 0 0 0 2.262ZM6.553 6.453h-.1v3.144h3.144V6.453H6.553ZM10.97 6.453h-.1v3.144h3.144V6.453H10.97ZM15.388 6.453h-.1v3.144h3.144V6.453h-3.044Z" fill="#524EB7" stroke="#524EB7" stroke-width=".2"/></symbol><symbol fill="none" xmlns="http://www.w3.org/2000/svg" viewBox="0 0 70 70" id="delivery"><path d="M11.36 64.874a8.125 8.125 0 0 1-5.084 2.74l.29 2.31a10.34 10.34 0 0 0 6.454-3.39l3.057 3.058a1.165 1.165 0 0 0 1.988-.823V58.198l2.263 4.148a4.821 4.821 0 0 0 7.893.834 4.82 4.82 0 0 0-2.136-7.71l-.916-.306 40.755-3.973a1.167 1.167 0 0 0 .979-1.564L66.67 49a77.406 77.406 0 0 0-3.028-7.048 3.095 3.095 0 0 0 2.632-4.056c-.157-.483-.356-.956-.533-1.435l3.18-2.934a1.166 1.166 0 0 0 0-1.711l-3.177-2.932c.177-.48.372-.952.53-1.436a3.125 3.125 0 0 0-2.968-4.092h-2.702l3.51-3.513a3.287 3.287 0 0 0-.766-5.22l-1.083-.582h.05V9.382a1.165 1.165 0 0 0-1.165-1.164h-4.417l-.823-1.533a3.288 3.288 0 0 0-5.22-.766l-3.513 3.512v-3.37a3.126 3.126 0 0 0-4.091-2.967c-.483.156-.956.35-1.435.53L38.717.447a1.2 1.2 0 0 0-1.712 0l-2.918 3.158c-.48-.178-.962-.355-1.45-.515a3.126 3.126 0 0 0-4.092 2.972v.06a78.43 78.43 0 0 0-5.226-2.47h-.038a1.133 1.133 0 0 0-.466-.078h-.062a1.167 1.167 0 0 0-.417.116c-.014.009-.025.019-.04.027-.013.009-.013 0-.019 0s-.016.019-.027.026c-.138.085-.257.199-.349.333 0 .01-.01.021-.016.032a1.171 1.171 0 0 0-.175.478L16.55 47.911l-.739-2.71a4.548 4.548 0 1 0-6.727 5.096l3.612 2.17H1.763a1.164 1.164 0 0 0-.823 1.987l6.666 6.667A14.716 14.716 0 0 1 .6 62.946v2.33a17.247 17.247 0 0 0 8.743-2.419l2.017 2.017Zm13.987-7.2a2.49 2.49 0 1 1-2.974 3.556l-3.004-5.503.1-.01 5.878 1.957Zm39.465-26.487 1.607 1.483-1.607 1.484a40.239 40.239 0 0 0-.687-1.47c.246-.493.464-.997.687-1.497Zm-.862 8.142a.787.787 0 0 1-.644.328h-.842c-.387-.732-.773-1.465-1.183-2.183.51-.74 1.001-1.49 1.457-2.257h.002a35.54 35.54 0 0 1 1.32 3.392.786.786 0 0 1-.11.72Zm-.644-13.645a.795.795 0 0 1 .757 1.042 36.25 36.25 0 0 1-4.101 8.523 79.49 79.49 0 0 0-5.976-8.444 9.723 9.723 0 0 0 3.7-1.12h5.62Zm-1.062-9.01a.962.962 0 0 1 .224 1.523l-2.474 2.48a8.166 8.166 0 0 0 .332-3.152 15.4 15.4 0 0 0-.349-2.064l2.267 1.213Zm-2.259-6.128v2.266l-1.151-.62c-.102-.209-.189-.425-.3-.63l-.547-1.016h1.998Zm-11.771 1.14 4.12-4.12a.963.963 0 0 1 .816-.27c.3.042.562.225.706.493l2.625 4.877a13.135 13.135 0 0 1 1.525 5.064 5.577 5.577 0 0 1-1.801 4.739 5.878 5.878 0 0 1-4.619 1.507 80.169 80.169 0 0 0-5.437-5.547 7.51 7.51 0 0 1 2.065-6.743Zm15.972 37.33L23.518 52.98A31.346 31.346 0 0 0 37.81 35.342c3.393-11.031-1.412-19.563-6.357-24.969a77.07 77.07 0 0 1 32.732 38.642h.001ZM43.8 5.305a.795.795 0 0 1 1.048.757v3.63a39.6 39.6 0 0 0-4.425-3.066 35.711 35.711 0 0 1 3.377-1.32ZM37.86 2.948l1.484 1.607c-.494.222-.988.443-1.472.684a40.449 40.449 0 0 0-1.476-.705l1.464-1.586Zm-6.987 3.113a.799.799 0 0 1 1.048-.755 36.622 36.622 0 0 1 12.81 7.321 9.812 9.812 0 0 0-1.005 3.631 79.152 79.152 0 0 0-12.853-8.913V6.061Zm-7.074.655a35.978 35.978 0 0 1 7.325 6.77c5.268 6.542 6.768 13.665 4.459 21.171-3.447 11.198-13.005 16.471-17.11 18.275l-.172-.059L23.8 6.716ZM12.76 62.98l-1.431-1.432a24.59 24.59 0 0 0 3.392-3.067 19.827 19.827 0 0 1-1.961 4.499Zm2.977 2.977-1.28-1.28c.48-.733.909-1.499 1.28-2.293v3.573ZM10.28 48.3a2.217 2.217 0 0 1-.197-3.67 2.22 2.22 0 0 1 3.48 1.184l1.451 5.327L10.28 48.3Zm-5.706 6.495h10.15a23.58 23.58 0 0 1-5.078 5.071l-5.072-5.07Z" fill="#524EB7"/></symbol><symbol fill="none" xmlns="http://www.w3.org/2000/svg" viewBox="0 0 120 118" id="group"><path d="m79.453 60.579-18.814-16.44a1.66 1.66 0 0 0-1.827 0L39.998 60.58c-.365.183-.548.548-.548 1.095V85.97c0 .73.548 1.46 1.461 1.46H78.54c.73 0 1.461-.547 1.461-1.46l.002-24.477c0-.365-.183-.73-.548-.913h-.001ZM63.562 71.538H55.89l-10.959-8.585h29.773l-11.142 8.585ZM42.19 64.414l10.959 8.585-10.96 9.863V64.414Zm13.7 9.863h7.67l11.508 10.23H44.382l11.508-10.23ZM66.118 73l10.96-8.585v18.448L66.119 73ZM59.726 47.06l15.16 13.151H44.564L59.726 47.06ZM50.229 13.817h20.64v2.74H50.23v-2.74ZM53.15 21.49h14.978v2.74H53.15v-2.74ZM18.995 93.273c.365.366.73.914.73 1.461h2.74a4.5 4.5 0 0 0-1.644-3.47c-.73-.549-1.46-.914-2.374-1.096v-2.375h-2.74v2.375c-.913.183-1.644.548-2.374 1.095a4.5 4.5 0 0 0-1.644 3.471 4.5 4.5 0 0 0 1.644 3.471c.913.914 2.374 1.279 3.653 1.279.73 0 1.46.183 1.827.73.365.366.73.914.73 1.461 0 .548-.183.914-.73 1.461-.914.914-2.74.914-3.836 0-.366-.365-.73-.913-.73-1.461h-2.558a4.5 4.5 0 0 0 1.644 3.471c.73.548 1.46.914 2.374 1.096v2.374h2.74v-2.374c.913-.183 1.644-.548 2.374-1.096a4.5 4.5 0 0 0 1.644-3.471 4.501 4.501 0 0 0-1.644-3.47c-.913-.914-2.374-1.28-3.653-1.28-.73 0-1.46-.182-1.827-.73-.365-.365-.73-.913-.73-1.46 0-.549.183-.914.73-1.462.915-.913 2.558-.913 3.654 0ZM112.881 95.283c-.365-1.278-.73-2.192-.913-2.74-.731-1.095-1.644-2.009-2.74-2.922-1.096-.73-2.192-1.279-3.653-1.46-1.279-.184-2.557-.184-4.018 0-1.279.182-2.74.73-3.836 1.46-1.28.73-2.193 1.644-3.105 2.74-.73 1.095-1.461 2.192-1.644 3.47-.366 1.28-.366 2.558-.366 3.837.184 1.278.549 2.557 1.28 3.653.73 1.095 1.643 2.009 2.739 2.922 1.096.731 2.192 1.279 3.653 1.461.73.183 1.278.183 2.009.183.73 0 1.279 0 2.009-.183l-.548-2.739a7.85 7.85 0 0 1-2.923 0c-.913-.183-1.827-.549-2.557-1.096a10.498 10.498 0 0 1-2.01-2.009c-.547-.731-.73-1.644-.913-2.558-.183-.913 0-1.827.183-2.74.183-.913.73-1.826 1.279-2.556.548-.914 1.46-1.462 2.374-2.01.914-.548 1.827-.913 2.923-1.095a7.85 7.85 0 0 1 2.923 0c.913.183 1.827.548 2.557 1.095.73.549 1.461 1.279 2.009 2.01 0 .183.365.548.731 2.009.183 1.095 0 2.192-.549 2.922-.365.365-.73.73-1.095.914l-.914-.001c-.365-.183-.548-1.096-.548-1.827 0-.183 0-.365.183-.548.365-1.827.365-3.288.365-3.288l.183-1.279-1.279-.183s-.73-.183-1.826-.183c-2.74 0-4.932 1.096-6.211 3.105-.913 1.46-1.279 3.105-.913 4.567.365 1.095.913 2.009 2.009 2.557.548.183 1.095.365 1.644.365 1.46 0 2.922-.73 4.018-1.827.183.365.548.731.913.914.731.365 1.827.73 3.471 0 .914-.366 1.644-1.096 2.192-1.827.914-1.46 1.279-3.287.914-5.113Zm-8.768 3.288c-.548.914-1.827 1.827-2.739 1.827h-.366c-.365-.183-.548-.548-.548-.73-.183-.73 0-1.461.548-2.375.914-1.46 2.74-1.827 3.837-1.827 0 .549-.183 1.096-.183 1.827-.183.73-.183.73-.183.914-.183-.001-.366-.001-.366.364Z" fill="#524EB7"/><path d="M108.497 82.132c1.644-5.115 2.557-10.412 2.557-15.891 0-21.006-13.151-40.003-32.695-47.491v-.366c0-9.863-8.036-17.9-17.9-17.9-9.864 0-17.9 8.037-17.9 17.9v.183C22.466 25.874 9.133 44.87 9.133 66.424c0 5.48.913 10.594 2.557 15.71C4.932 84.324 0 90.716 0 98.205c0 9.316 7.672 16.988 16.988 16.988 5.662 0 10.777-2.923 13.882-7.124 8.585 6.027 18.63 9.315 29.226 9.315 10.412 0 20.458-3.105 29.042-9.133 3.105 4.202 8.036 6.941 13.699 6.941 9.316 0 16.988-7.671 16.988-16.987-.003-7.49-4.752-13.7-11.328-16.075v.001Zm-61.19-56.625c-1.278-2.192-1.827-4.748-1.827-7.124 0-8.402 6.758-15.16 15.161-15.16 8.402 0 15.16 6.757 15.16 15.16 0 8.402-6.757 15.16-15.16 15.16-2.374 0-4.932-.547-6.758-1.46l-.365-.183-8.402 1.827 2.557-7.49-.366-.73ZM16.985 112.27c-7.854 0-14.247-6.393-14.247-14.247 0-7.855 6.393-14.248 14.247-14.248 7.855 0 14.247 6.393 14.247 14.248 0 7.854-6.392 14.247-14.247 14.247Zm43.107 2.009c-10.046 0-19.727-3.105-27.764-8.95 1.096-2.192 1.644-4.749 1.644-7.49 0-9.315-7.671-16.987-16.987-16.987-.914 0-1.827 0-2.557.183-1.644-4.932-2.375-9.864-2.375-15.16 0-20.093 12.421-37.811 31.052-44.935.365 1.827.73 3.47 1.644 5.115L40.73 37.379l12.239-2.74c2.192 1.096 4.931 1.645 7.671 1.645 8.768 0 16.074-6.393 17.535-14.613 18.083 7.306 30.138 25.024 30.138 44.568 0 5.297-.914 10.229-2.557 15.16-.914-.183-2.01-.365-2.923-.365-9.316 0-16.988 7.672-16.988 16.988 0 2.739.73 5.297 1.827 7.489-8.035 5.844-17.534 8.766-27.58 8.766v.002Zm42.742-2.009c-7.855 0-14.247-6.393-14.247-14.247 0-7.855 6.392-14.248 14.247-14.248 7.854 0 14.247 6.393 14.247 14.248 0 7.854-6.393 14.247-14.247 14.247Z" fill="#524EB7"/></symbol><symbol fill="none" xmlns="http://www.w3.org/2000/svg" viewBox="0 0 120 98" id="dev"><path d="M68.8 27.743c-1.459 3.465-4.74 14.587 1.276 38.108.183.729 1.094 2.37 3.1 2.37 2.005 0 2.917-1.458 3.1-2.37 6.38-23.886 3.099-34.826 1.458-38.29 1.64-1.459 2.37-3.1 2.37-3.1 2.917-5.287-1.094-9.846-2.37-11.304-1.642-1.824-.73-4.74-.73-4.74l.548-1.824h-1.824c-.365 0-8.023.182-10.394 9.299-1.64 6.38 1.095 10.21 3.466 11.85Zm-.912-11.123c1.276-4.74 4.194-6.381 6.017-6.929-.183 1.459 0 3.647 1.64 5.288 2.736 3.1 3.466 5.652 2.007 8.205 0 0-.73 1.641-2.37 2.735l-1.277.73.729 1.276c0 .183 6.2 9.663-1.276 37.196 0 .364-.365.364-.365.364a.392.392 0 0 1-.365-.364c-7.111-27.533-1.093-37.014-1.093-37.196l.912-1.277-1.46-.546c-.181-.183-4.923-2.37-3.1-9.482Z" fill="#524EB7"/><path d="M71.716 46.342h2.735v2.735h-2.735v-2.735ZM71.716 39.96h2.735v2.736h-2.735V39.96Z" fill="#524EB7"/><path d="M114.383.94H4.982C2.247.94.059 3.31.059 6.044v72.752c0 2.734 2.188 5.105 5.105 5.105h39.567L37.8 94.296h-7.293v2.735h58.896v-2.735H82.11l-6.928-10.394h39.566c2.735 0 5.106-2.188 5.106-5.105l-.001-72.752C119.488 3.31 117.117.94 114.382.94h.001ZM4.982 3.674h109.401c1.276 0 2.37 1.094 2.37 2.37v64.73H2.793V6.047c0-1.277.912-2.37 2.189-2.37v-.002Zm73.481 90.438H40.901L47.83 83.72h23.704l6.93 10.393Zm35.92-13.128H4.982c-1.277 0-2.189-1.094-2.189-2.37V73.51h113.96v5.287c0 1.277-1.094 2.188-2.37 2.188Z" fill="#524EB7"/><path d="M86.668 58.194c0 3.83 2.37 7.476 5.835 9.117l2.006.912v-6.2l2.188-1.824 2.189 1.824-.001 6.017 2.006-.912a9.862 9.862 0 0 0 5.652-8.934 9.622 9.622 0 0 0-4.559-8.206v-24.98c2.735-1.823 4.559-4.923 4.559-8.205a9.863 9.863 0 0 0-5.652-8.934l-2.006-.911v6.017l-2.189 1.823-2.188-1.823.001-6.017-2.006.91c-3.646 1.642-5.835 5.107-5.835 9.118a9.623 9.623 0 0 0 4.559 8.205v24.616c-2.918 1.823-4.559 4.923-4.559 8.387Zm6.565-35.008c-2.37-1.276-3.83-3.646-3.83-6.2 0-2.005.912-4.01 2.37-5.287v2.735l4.924 4.194 4.923-4.194V11.88c1.276 1.277 2.188 3.1 2.188 5.106 0 2.553-1.458 5.106-3.83 6.2l-.728.364V51.45l.729.364c2.37 1.276 3.829 3.647 3.829 6.2 0 2.005-.729 3.83-2.188 5.105v-2.552l-4.923-4.194-4.924 4.194V63.3c-1.458-1.276-2.37-3.282-2.37-5.287 0-2.553 1.459-5.106 3.83-6.2l.729-.364V23.55l-.73-.365ZM53.117 8.78h-45.4v27.168h45.218l.001-27.168h.181ZM27.591 22.273l-17.139 9.846V12.61l17.14 9.664Zm-13.31-10.758h32.272l-16.045 9.299-16.228-9.3Zm16.227 12.399 16.046 9.299H14.28l16.227-9.299Zm2.736-1.641 17.14-9.846v19.692l-17.14-9.846ZM28.686 39.413H7.716v26.074h20.787V39.413h.183Zm-2.735 23.34h-15.5V42.148h15.5v20.603ZM32.332 65.487h20.786V39.413H32.332v26.074Zm2.735-23.338h15.316v20.605l-15.316-.001V42.149Z" fill="#524EB7"/></symbol><symbol fill="none" xmlns="http://www.w3.org/2000/svg" viewBox="0 0 120 90" id="modernization"><path d="M119.914 58.623V47.115l-7.489-1.46a32.27 32.27 0 0 0-3.288-8.22l4.383-6.211-8.036-8.22-6.21 4.201c-2.558-1.644-5.298-2.74-8.22-3.47l-1.28-7.49H78.268l-1.46 7.49a32.256 32.256 0 0 0-8.22 3.287l-6.211-4.383-8.22 8.036 4.202 6.21c-1.461 2.558-2.74 5.298-3.471 8.22l-7.49 1.28v11.507l7.49 1.46a32.252 32.252 0 0 0 3.288 8.22l-4.566 6.576 8.22 8.22 6.21-4.201c2.558 1.644 5.297 2.74 8.22 3.47l1.279 7.49h11.507l1.461-7.49a32.255 32.255 0 0 0 8.22-3.287l6.21 4.384 8.22-8.22-4.201-6.21c1.644-2.558 2.74-5.298 3.471-8.22l7.488-1.462Zm-9.864-.183c-.73 3.105-2.009 6.21-3.836 8.95l-.548.73 4.018 5.845-4.931 5.115-5.845-4.018-.73.548c-2.74 1.827-5.846 2.923-8.95 3.653h-.914l-1.279 6.94h-6.94l-1.28-6.94-.913-.184c-3.105-.73-6.21-2.009-8.95-3.836l-.73-.548-6.028 4.019-4.932-4.931 4.018-5.845-.548-.73c-1.827-2.74-3.105-5.846-3.653-8.95l-.183-.914-6.94-1.462V48.94l6.94-1.279.184-.913c.73-3.288 2.01-6.21 3.836-8.95l.548-.73-4.02-5.846 4.932-4.932 5.845 4.018.73-.548c2.74-1.827 5.846-3.105 8.951-3.653l.913-.183 1.28-6.94h6.94l1.279 6.94.913.183c3.288.73 6.21 2.01 8.95 3.836l.731.549 5.845-4.019 4.932 4.932-4.018 5.845.548.73c1.827 2.74 2.923 5.663 3.653 8.951l.183.913 6.941 1.28v6.94l-6.76 1.461-.182.913Z" fill="#524EB7"/><path d="M83.563 31.406c-11.69 0-21.188 9.499-21.188 21.188 0 5.663 2.192 10.96 6.21 14.978 4.019 4.019 9.316 6.21 14.978 6.21h.183c11.69 0 21.189-9.498 21.189-21.188 0-5.662-2.193-10.959-6.211-14.977-4.018-4.018-9.316-6.21-15.16-6.21Zm0 39.82v1.462-1.461c-5.115 0-9.68-2.01-13.151-5.48-3.471-3.471-5.297-8.22-5.297-13.152 0-10.229 8.402-18.448 18.63-18.448 4.932 0 9.499 2.009 12.97 5.48 3.47 3.47 5.296 8.22 5.296 13.151.001 10.046-8.219 18.449-18.448 18.449ZM51.78 34.692l-4.383-3.288c.365-2.009.548-4.018.365-5.845l4.749-2.74-2.923-8.401-5.48.73a22.01 22.01 0 0 0-3.836-4.383l1.46-5.297-7.854-3.837-3.288 4.384c-2.009-.365-3.836-.548-5.845-.365L22.005.9l-8.4 2.74.73 5.48a22.012 22.012 0 0 0-4.384 3.836l-5.297-1.46L.818 19.35l4.384 3.288c-.365 2.009-.548 3.836-.365 5.845l-4.75 2.738 2.923 8.402 5.48-.73a22.01 22.01 0 0 0 3.837 4.383l-1.461 5.297 8.037 3.836 3.287-4.384c2.01.366 4.019.549 5.846.366l2.74 4.748 8.401-2.922-.73-5.48A22.016 22.016 0 0 0 42.83 40.9l5.297 1.461 3.654-7.67ZM41.553 37.98l-.548.73c-1.461 1.828-3.105 3.289-5.115 4.384l-.73.549.73 4.931-4.019 1.461-2.374-4.383-.913.183c-2.193.183-4.567.183-6.758-.365l-.914-.183-2.923 4.018-3.836-1.827 1.097-5.114-.73-.548c-1.828-1.461-3.289-3.105-4.384-5.115l-.366-.73-5.114.73-1.461-4.018 4.383-2.374-.183-.914c-.183-2.374-.183-4.566.366-6.757l.183-.914L4.29 18.62l1.827-3.836 4.748 1.279.73-.731c1.462-1.827 3.106-3.288 5.115-4.384l.731-.548-.73-4.932 4.018-1.461 2.374 4.384.914-.183c2.192-.183 4.566-.183 6.758.365l.913.183 2.923-4.018 3.836 1.826-1.279 5.115.73.548c1.828 1.46 3.289 3.105 4.384 5.115l.549.73 4.931-.73 1.461 4.018-4.383 2.557.183.913c.183 2.192.183 4.567-.366 6.758l-.183.914 4.019 2.922-1.827 3.836-5.114-1.279Z" fill="#524EB7"/><path d="M26.21 14.6c-1.28 0-2.74.183-4.019.73-3.105 1.096-5.662 3.288-7.124 6.21-1.461 2.924-1.644 6.393-.548 9.5 1.644 5.114 6.392 8.401 11.873 8.401 1.278 0 2.74-.183 4.018-.73 3.105-1.096 5.662-3.288 7.124-6.21 1.46-2.923 1.644-6.393.548-9.5-1.827-4.93-6.393-8.401-11.873-8.401Zm8.767 16.805c-1.096 2.374-3.105 4.018-5.663 4.931-.913.183-2.009.366-3.105.366-4.201 0-7.854-2.558-9.133-6.576-.913-2.375-.73-5.115.548-7.49 1.096-2.374 3.105-4.018 5.663-4.931 1.095-.365 2.009-.548 3.105-.548 4.2 0 7.854 2.557 9.133 6.575.73 2.559.547 5.298-.548 7.672ZM89.227 49.306l4.2 3.288-4.2 3.471 1.826 2.01 6.576-5.48-6.576-5.48-1.826 2.191ZM76.076 47.114l-6.576 5.48 6.576 5.48 1.826-2.01-4.018-3.47 4.018-3.288-1.826-2.192ZM80.439 61.962l-2.457-1.215 8.665-17.52 2.456 1.215-8.664 17.52Z" fill="#524EB7"/></symbol><symbol fill="none" xmlns="http://www.w3.org/2000/svg" viewBox="0 0 70 56" id="news"><path d="M60.209 11.99a1.463 1.463 0 0 1-1.463 1.463H26.714a1.463 1.463 0 0 1 0-2.925h32.032a1.462 1.462 0 0 1 1.463 1.462Zm-33.496 9.428h9.64a1.463 1.463 0 1 0 0-2.926h-9.64a1.463 1.463 0 0 0 0 2.926Zm0 7.942h9.64a1.462 1.462 0 1 0 0-2.926h-9.64a1.463 1.463 0 0 0 0 2.925v.001Zm0 7.942h9.64a1.462 1.462 0 1 0 0-2.925h-9.64a1.463 1.463 0 0 0 0 2.925Zm32.033 5.017H26.713a1.463 1.463 0 0 0 0 2.925h32.033a1.462 1.462 0 1 0 0-2.925Zm1.463-22.371v15.878a1.462 1.462 0 0 1-1.463 1.462H44.507a1.463 1.463 0 0 1-1.462-1.462v-15.87c0-.808.654-1.463 1.462-1.463h14.24a1.462 1.462 0 0 1 1.462 1.463v-.008Zm-2.925 1.462H45.97v12.952h11.314V21.41ZM.026 46.101V17.58a1.463 1.463 0 0 1 2.926 0V46.1a6.266 6.266 0 0 0 9.335 5.249A6.266 6.266 0 0 0 15.48 46.1V2.17c0-.808.655-1.463 1.463-1.463h51.56a1.463 1.463 0 0 1 1.462 1.463v45.233a7.884 7.884 0 0 1-7.906 7.892H9.218a9.203 9.203 0 0 1-9.193-9.193h.001Zm15.907 6.268h46.125a4.959 4.959 0 0 0 4.959-4.959V3.631H18.41v42.47a9.157 9.157 0 0 1-2.472 6.268h-.006ZM7.756 17.886v28.193a1.463 1.463 0 0 0 2.926 0V17.886a1.463 1.463 0 0 0-2.926 0Z" fill="#524EB7"/></symbol><symbol fill="none" xmlns="http://www.w3.org/2000/svg" viewBox="0 0 72 72" id="products"><path d="M68.975 46.555V11.967c0-1.858-1.488-3.364-3.311-3.364H55.357a1.115 1.115 0 0 1-1.112-1.118c0-.615.498-1.116 1.112-1.116H66.08l-.013.016c2.866.21 5.13 2.635 5.13 5.585v38.742c0 3.086-2.48 5.598-5.535 5.598H45.591l2.17 10.471 21.214-20.226Zm0 0H3.179V11.968c0-1.857 1.488-3.364 3.31-3.364H16.8c.614 0 1.111-.5 1.111-1.116 0-.616-.497-1.117-1.112-1.117H6.49C3.437 6.371.956 8.885.956 11.97V50.71c0 3.085 2.48 5.599 5.534 5.599H26.56l-1.908 9.208-.001.005-.001.003-.001.006-.26 1.25c-.226 1.094.015 2.19.671 3.003.653.806 1.662 1.264 2.76 1.264h16.51c1.1 0 2.11-.457 2.761-1.264.658-.814.897-1.91.67-3.003l21.213-20.227Zm.195 4.152v-1.921h-.2m.2 1.921-.2-2.121v.2m.2 1.921c.003 1.966-1.572 3.565-3.506 3.566l3.506-3.566Zm-.2-1.921H3.174v1.921c0 1.86 1.489 3.366 3.311 3.366H65.662c1.822 0 3.31-1.507 3.308-3.365v-1.922ZM45.584 67.233c.095.455.01.852-.212 1.132l-.006.007c-.223.275-.583.44-1.035.44H27.82c-.45 0-.812-.165-1.035-.44-.227-.28-.314-.679-.218-1.14l.077-.37h18.862l.078.37v.001Zm-20.931-1.715Zm18.668-9.212 1.723 8.321H27.107l1.724-8.321h1.836c.535 2.522 2.762 4.43 5.41 4.43 2.646 0 4.874-1.908 5.41-4.43h1.834Zm-7.244 2.197c-1.413 0-2.63-.916-3.1-2.197h6.198c-.47 1.281-1.687 2.197-3.098 2.197Z" fill="#524EB7" stroke="#524EB7" stroke-width=".4"/><path d="M36.075 42.274c11.372 0 20.625-9.304 20.625-20.737C56.7 10.104 47.448.8 36.075.8S15.45 10.104 15.45 21.537c0 11.433 9.252 20.737 20.625 20.737Zm0-39.24c10.145 0 18.4 8.3 18.4 18.503s-8.255 18.504-18.4 18.504c-10.145 0-18.4-8.3-18.4-18.504s8.255-18.504 18.4-18.504Z" fill="#524EB7" stroke="#524EB7" stroke-width=".4"/><path d="m31.714 26.229-.098-.482h13.868c.527 0 .982-.373 1.09-.89l1.94-9.423h.001a1.122 1.122 0 0 0-.227-.93 1.107 1.107 0 0 0-.863-.413H29.259l-.596-2.949a1.112 1.112 0 0 0-1.082-.893l-2.854-.019h-.007c-.612 0-1.108.497-1.112 1.11v.001a1.116 1.116 0 0 0 1.107 1.12h.01l1.94.013.547 2.703a1.1 1.1 0 0 0 .021.253l1.905 9.42c.016.086.044.163.076.234l.502 2.483c.106.52.56.895 1.09.895H45.42c.615 0 1.112-.5 1.112-1.116 0-.616-.497-1.117-1.112-1.117H31.714Zm7.341-2.716v-7.19h2.429l-.967 7.19h-1.462Zm-2.223-7.19v7.19H35.37l-.966-7.19h2.428Zm9.23 0-1.482 7.19h-1.818l.966-7.19h2.334Zm-14.898 7.19-1.452-7.19h2.447l.966 7.19h-1.96Z" fill="#524EB7" stroke="#524EB7" stroke-width=".4"/><path d="M35.99 30.583a2.26 2.26 0 0 0-2.252-2.263 2.26 2.26 0 0 0-2.25 2.263 2.26 2.26 0 0 0 2.25 2.263 2.26 2.26 0 0 0 2.253-2.263Zm0 0h-.2.2Zm-2.252.028a.026.026 0 0 1-.018-.008.03.03 0 0 1-.01-.022.03.03 0 0 1 .029-.03.03.03 0 0 1 .03.03c0 .018-.014.03-.03.03ZM45.473 30.583a2.26 2.26 0 0 0-2.251-2.263 2.26 2.26 0 0 0-2.252 2.263 2.26 2.26 0 0 0 2.252 2.262 2.26 2.26 0 0 0 2.251-2.262Zm-2.251.028a.03.03 0 0 1 0-.059c.013 0 .027.012.027.03a.03.03 0 0 1-.027.029Z" fill="#524EB7" stroke="#524EB7" stroke-width=".4"/></symbol><symbol fill="none" xmlns="http://www.w3.org/2000/svg" viewBox="0 0 122 122" id="promotion"><path d="M71.814 25.325h-.1V52.789h2.95V25.325h-2.85ZM71.814 93.578h-.1V121.043h2.95V93.578h-2.85ZM25.254 71.802h-.1V74.747h27.513V71.802H25.254ZM93.629 71.802h-.1V74.747h27.513V71.802H93.629ZM67.972 34.94l.092-.013-.366-2.745-.013-.098-.099.012c-7.535.918-14.7 4.036-20.764 8.988l-.075.06.058.078 1.65 2.196.062.082.08-.064c5.67-4.565 12.434-7.484 19.381-8.397l-.006-.1ZM34.774 68.16l.098.011.013-.098c.914-6.934 3.84-13.505 8.229-19.165l.062-.08-.081-.061-2.2-1.647-.077-.057-.06.074c-4.778 5.87-7.902 13.023-9.004 20.543l-.015.1.102.013 2.933.366ZM111.336 68.13l.035.036.05-.007 2.749-.366.1-.013-.014-.1c-2.573-18.525-17.09-33.017-35.648-35.401l-.099-.013-.013.099-.367 2.744-.013.1.1.013c17.185 2.19 30.715 15.695 33.092 32.851l.005.033.023.023ZM34.79 78.123l-.017-.1-2.75.367-.099.013.013.099c2.39 18.526 17.089 33.383 35.648 35.768l.099.012.013-.098.367-2.745.013-.1-.1-.012c-17.185-2.191-30.898-15.879-33.092-33.216l-.095.012ZM78.228 111.422l-.099.017.367 2.744.013.099.099-.013c18.56-2.384 33.259-17.059 35.648-35.768l.013-.098-.099-.013-2.749-.365-.1-.014-.013.1c-2.193 17.338-15.906 31.026-33.092 33.216l.012.095ZM57.436 52.382l.06.08.079-.06c3.471-2.552 7.67-4.374 12.052-4.921l.1-.013-.014-.1-.366-2.744-.013-.098-.098.011c-4.784.552-9.568 2.572-13.43 5.51l-.079.06.06.08 1.649 2.195ZM47.237 69.805l.1.013.012-.1a25.067 25.067 0 0 1 4.747-11.847l.06-.08-.08-.059-2.2-1.647-.08-.06-.06.08a26.94 26.94 0 0 0-5.335 13.224l-.012.097.098.013 2.75.366Z" fill="#524EB7" stroke="#524EB7" stroke-width=".2"/><path d="m98.875 69.778.034.033.048-.006 2.749-.366.099-.013-.013-.099c-1.655-12.854-11.956-23.135-24.833-24.79l-.099-.012-.013.099-.366 2.744-.014.1.1.013c11.504 1.458 20.816 10.573 22.277 22.237l.005.035.025.025ZM47.321 76.406l-.035-.035-.049.007-2.75.366-.098.013.013.099c1.655 13.036 11.956 23.318 24.833 24.972l.099.012.013-.098.367-2.745.013-.1-.1-.012C57.942 97.426 48.81 88.13 47.35 76.465l-.005-.034-.024-.025ZM101.656 76.736l-2.7-.359-.1-.013-.012.1c-1.46 11.664-10.773 20.78-22.278 22.42l-.099.014.014.099.366 2.744.013.099.099-.013c12.877-1.653 23.176-11.936 24.833-24.972l.038-.3-.174.181ZM72.11 74.169l.07.07.07-.07 2.017-2.013.07-.07-.07-.072-40.473-40.218 2.19-11.11.01-.052-.038-.038L16.342 1.017l-.131-.131-.037.182-2.553 12.744-12.583 2.549-.183.037.132.132 19.614 19.579.037.037.052-.01 11.13-2.186L72.11 74.17ZM21.436 33.003 6.759 18.17l9.347-1.795.067-.013.013-.066 1.797-9.33 14.86 14.833-1.81 9.396-9.596 1.808Z" fill="#524EB7" stroke="#524EB7" stroke-width=".2"/><path d="m62.682 69.43-.096-.035-.033.097c-.367 1.099-.738 2.393-.738 3.69 0 6.094 4.994 11.08 11.098 11.08 6.104 0 11.098-4.986 11.098-11.08 0-6.093-4.994-11.078-11.098-11.078-1.291 0-2.592.184-3.71.742l-.08.04.03.083.917 2.562.035.098.096-.038a7.27 7.27 0 0 1 2.712-.542 8.107 8.107 0 0 1 8.15 8.134 8.107 8.107 0 0 1-8.15 8.134 8.107 8.107 0 0 1-8.149-8.134c0-.902.181-1.804.543-2.708l.039-.096-.098-.035-2.566-.915Z" fill="#524EB7" stroke="#524EB7" stroke-width=".2"/></symbol><symbol fill="none" xmlns="http://www.w3.org/2000/svg" viewBox="0 0 66 70" id="search"><path d="M51.895 4.258h-2.183c-.6 0-1.092.491-1.092 1.092 0 .6.491 1.091 1.092 1.091h2.183c.601 0 1.092-.49 1.092-1.091 0-.6-.491-1.092-1.092-1.092ZM45.345 4.258H43.16c-.6 0-1.092.491-1.092 1.092 0 .6.492 1.091 1.092 1.091h2.184c.6 0 1.092-.49 1.092-1.091 0-.6-.492-1.092-1.092-1.092ZM59.812 40.342c-.6 0-1.092.491-1.092 1.092v11.955H7.405V41.434c0-.6-.491-1.092-1.092-1.092-.6 0-1.091.491-1.091 1.092v11.955H3.038V25.112h3.22c.601 0 1.093-.491 1.093-1.092 0-.6-.492-1.092-1.092-1.092h-3.22a2.19 2.19 0 0 0-2.185 2.184V62.07a2.19 2.19 0 0 0 2.184 2.183h24.02v3.44h-5.023c-.6 0-1.091.49-1.091 1.091 0 .6.49 1.092 1.091 1.092h22c.6 0 1.092-.491 1.092-1.092 0-.6-.492-1.092-1.092-1.092h-4.968v-3.439h24.02a2.19 2.19 0 0 0 2.183-2.183V25.112a2.19 2.19 0 0 0-2.183-2.184h-3.33c-.6 0-1.092.491-1.092 1.092 0 .6.491 1.092 1.092 1.092h3.33v28.277h-2.184V41.434c0-.6-.491-1.092-1.091-1.092ZM36.884 67.528H29.24v-3.275h7.643v3.275Zm26.203-11.955v6.551H3.038v-6.55h60.05Z" fill="#524EB7"/><path d="M57.628 59.94h2.184c.6 0 1.091-.49 1.091-1.091 0-.6-.491-1.092-1.091-1.092h-2.184c-.6 0-1.092.491-1.092 1.092 0 .6.491 1.092 1.092 1.092ZM54.898 0H11.226a2.19 2.19 0 0 0-2.184 2.184v46.402a2.19 2.19 0 0 0 2.184 2.183h43.672a2.19 2.19 0 0 0 2.183-2.183V2.184A2.19 2.19 0 0 0 54.898 0ZM11.226 2.184h43.672v6.55H11.226v-6.55Zm0 46.402V10.918h43.672v37.668H11.226Z" fill="#524EB7"/><path d="M37.484 35.1c-.437-.272-1.037-.163-1.365.22-.819.927-2.02 1.31-4.149 1.31s-3.33-.383-4.148-1.31c-.328-.383-.929-.492-1.365-.22-3.658 2.184-5.678 5.623-5.678 9.663 0 .6.492 1.092 1.092 1.092H42.07c.6 0 1.092-.491 1.092-1.092 0-4.04-2.02-7.479-5.678-9.662Zm-14.467 8.572c.273-2.566 1.692-4.859 3.876-6.278 1.529 1.2 3.494 1.42 5.077 1.42 1.583 0 3.549-.165 5.077-1.42a8.899 8.899 0 0 1 3.876 6.278H23.017Z" fill="#524EB7"/><path d="M27.003 32.1c2.347 2.729 6.496 3.056 9.28.709 2.784-2.348 3.057-6.496.71-9.28-2.347-2.73-6.496-3.058-9.28-.71-2.13 1.801-2.84 4.804-1.802 7.37l-6.005 3.766a1.12 1.12 0 0 0-.327 1.529c.327.546.982.655 1.528.327l5.896-3.712Zm4.968-8.626a4.38 4.38 0 0 1 4.367 4.367 4.38 4.38 0 0 1-4.367 4.367 4.38 4.38 0 0 1-4.368-4.367 4.38 4.38 0 0 1 4.367-4.367Z" fill="#524EB7"/></symbol><symbol fill="none" xmlns="http://www.w3.org/2000/svg" viewBox="0 0 70 70" id="shop"><path d="M69.88 18.39V17.975c0-.083 0-.083-.082-.167 0-.082-.083-.082-.083-.166 0 0 0-.083-.083-.083l-4.734-7.89V1.78c0-.914-.747-1.66-1.66-1.66H6.762c-.914 0-1.661.746-1.661 1.66v7.89L.368 17.56s0 .082-.083.082c0 .083-.083.083-.083.166s0 .083-.083.167V18.723c0 3.654 1.994 6.893 4.983 8.637v30.895c0 .913.747 1.66 1.66 1.66h21.76l-2.243 6.645h-2.906c-.914 0-1.66.747-1.66 1.66 0 .914.747 1.661 1.66 1.661h23.254c.914 0 1.661-.747 1.661-1.66 0-.914-.747-1.661-1.66-1.661h-2.99l-2.243-6.645h21.842c.914 0 1.661-.747 1.661-1.66V27.443c2.99-1.745 4.984-4.984 4.984-8.637V18.39h-.001ZM8.424 3.441h53.153v4.983H8.423V3.441Zm-.747 8.305H62.24l2.99 4.983H4.686l2.99-4.983Zm42.107 8.305c-.582 3.073-3.24 5.398-6.478 5.398-3.24 0-5.98-2.325-6.478-5.398h12.956Zm-16.61 0c-.582 3.073-3.24 5.398-6.478 5.398-3.24 0-5.98-2.325-6.478-5.398h12.956Zm-29.567 0h13.04c-.582 3.073-3.24 5.398-6.478 5.398-3.24 0-6.063-2.325-6.562-5.398ZM29.851 66.56l2.242-6.645h5.897l2.242 6.645H29.852Zm31.725-9.966H8.423V51.61h53.153v4.984Zm0-8.305H8.423V28.605c.582.083 1.08.167 1.661.167 3.488 0 6.478-1.745 8.305-4.485 1.828 2.658 4.817 4.485 8.305 4.485 3.489 0 6.478-1.745 8.305-4.485 1.828 2.658 4.817 4.485 8.306 4.485 3.488 0 6.478-1.745 8.305-4.485 1.827 2.658 4.817 4.485 8.305 4.485.581 0 1.08-.083 1.66-.166v19.683Zm-1.66-22.84c-3.24 0-5.98-2.325-6.479-5.397h13.04c-.582 3.072-3.323 5.398-6.562 5.398Z" fill="#524EB7"/></symbol><symbol fill="none" xmlns="http://www.w3.org/2000/svg" viewBox="0 0 70 64" id="website"><path d="M64.274.474H5.726a5.636 5.636 0 0 0-5.63 5.63v38.281a5.636 5.636 0 0 0 5.63 5.63h17.319l-2.29 4.578c-2.755.363-4.896 2.702-4.896 5.555v3.378H54.14v-3.378c0-2.853-2.141-5.192-4.897-5.555l-2.288-4.578h17.318a5.636 5.636 0 0 0 5.63-5.63V6.104a5.636 5.636 0 0 0-5.63-5.63h.001ZM51.89 60.148v1.126H18.111v-1.126a3.382 3.382 0 0 1 3.378-3.378h27.022a3.382 3.382 0 0 1 3.378 3.378Zm-5.2-5.63H23.31l2.252-4.503h18.875l2.253 4.503Zm20.963-10.133a3.382 3.382 0 0 1-3.377 3.378H5.727a3.382 3.382 0 0 1-3.378-3.378V6.104a3.382 3.382 0 0 1 3.378-3.378h58.548a3.382 3.382 0 0 1 3.377 3.378v38.281Z" fill="#524EB7"/><path d="M63.148 4.978H6.852A2.254 2.254 0 0 0 4.601 7.23v31.526a2.254 2.254 0 0 0 2.251 2.251h56.296a2.254 2.254 0 0 0 2.252-2.251V7.23a2.254 2.254 0 0 0-2.252-2.252Zm-20.266 29.9v-4.004h6.755v4.003c-1.34.782-2.252 2.218-2.252 3.878h-2.251c0-1.66-.912-3.096-2.252-3.878Zm9.007 1.625h2.252v-2.252h-2.252v-5.63H40.63v5.63h-2.252v2.252h2.252a2.254 2.254 0 0 1 2.252 2.252h-6.756v-8.622a2.25 2.25 0 0 1 1.706-2.185l7.302-1.825v-3.277l-.56-.325c-1.06-.617-1.692-1.704-1.692-2.907v-2.017c0-1.868 1.35-3.448 3.073-3.599a3.354 3.354 0 0 1 2.587.874 3.39 3.39 0 0 1 1.095 2.49v2.252c0 1.203-.633 2.29-1.692 2.906l-.56.326v3.278l7.302 1.826a2.247 2.247 0 0 1 1.706 2.183v8.622h-6.756a2.254 2.254 0 0 1 2.252-2.252Zm6.756 2.252v-8.622a4.495 4.495 0 0 0-3.412-4.369l-5.596-1.399v-.27a5.636 5.636 0 0 0 2.252-4.48v-2.252a5.646 5.646 0 0 0-1.826-4.15 5.647 5.647 0 0 0-4.303-1.458c-2.877.25-5.13 2.816-5.13 5.842v2.018c0 1.76.85 3.424 2.252 4.48v.27l-5.596 1.4a4.496 4.496 0 0 0-3.411 4.368v8.622H6.853V7.23h56.295l.002 31.526h-4.505ZM60.897 43.26h2.251v2.251h-2.252V43.26ZM56.393 43.26h2.251v2.251h-2.251V43.26ZM51.889 43.26h2.252v2.251h-2.252V43.26ZM6.853 43.26h9.007v2.251H6.853V43.26ZM18.111 43.26h2.252v2.251h-2.252V43.26Z" fill="#524EB7"/><path d="M11.355 36.503h11.26V25.244h-11.26v11.26Zm2.252-9.007h6.756v6.756h-6.756v-6.756ZM25.196 8.685l-3.047 3.048H11.355v11.26h11.26V14.45l4.174-4.174-1.593-1.592Zm-4.833 12.056h-6.756v-6.756h6.29l-2.912 2.912-1.455-1.456-1.592 1.592 3.047 3.048 3.378-3.378v4.038ZM58.645 21.867h2.251v2.252h-2.252v-2.252ZM56.393 11.733h2.251v7.882h2.252V9.48h-4.503v2.252Z" fill="#524EB7"/></symbol><symbol viewBox="0 0 70 70" fill="none" xmlns="http://www.w3.org/2000/svg" id="portal"><path d="M65.476 41.11a1.075 1.075 0 0 0-.937-.55h-5.772v-2.874h5.772c.592 0 1.073-.48 1.073-1.073V1.028c0-.593-.48-1.073-1.073-1.073H.983c-.592 0-1.074.48-1.074 1.073v35.585c0 .593.481 1.073 1.074 1.073h5.771v2.875H.984c-.592 0-1.074.48-1.074 1.073V57.89c0 .594.481 1.074 1.074 1.074h5.771v10.16a1.073 1.073 0 1 0 2.147 0V58.964h3.422v10.161a1.073 1.073 0 1 0 2.146 0V58.964h36.583v10.161a1.073 1.073 0 1 0 2.146 0V58.964h3.422v10.161a1.073 1.073 0 1 0 2.147 0V58.964h5.771c.389 0 .747-.21.937-.55l4.54-8.13c.182-.325.182-.72.001-1.046l-4.54-8.127Zm-8.855-.549h-3.422v-2.874h3.422v2.874Zm-5.569-2.875v2.875H14.47v-2.874l36.583-.001ZM2.055 2.101h61.41V35.54H2.055V2.1ZM8.9 37.686h3.422v2.875H8.9v-2.875Zm58.95 12.077L63.91 56.82H2.054V42.707H63.91l3.942 7.056Z" fill="#524EB7" stroke="#524EB7" stroke-width=".4"/><path d="M6.82 15.785a14.732 14.732 0 0 1 6.397-9.37m-6.397 9.37 11.425 17.531.008.003h.002l.035.01h.005a14.73 14.73 0 0 0 11.148-2.102 14.732 14.732 0 0 0 6.396-9.37c1.672-8-3.475-15.872-11.474-17.545l-.19-.04-.001.002c-3.814-.747-7.7.01-10.957 2.141m-6.397 9.37a14.718 14.718 0 0 0 .192 6.806m-.192-6.806.192 6.806m6.205-16.176.11.167-.11-.167ZM7.012 22.591l.008.037.003.01v.002l.004.011c1.402 5.202 5.587 9.462 11.203 10.662h.003l.011.003L7.012 22.591Zm22.331-9.838a20.338 20.338 0 0 0-1.83-5.181 12.882 12.882 0 0 1 5.514 5.952l-3.684-.77Zm-.26 8.698 4.572.956a12.7 12.7 0 0 1-1.94 3.97l-4.31-.9c.69-1.191 1.272-2.53 1.678-4.026ZM8.6 17.166l4.57.956a16.756 16.756 0 0 0-.076 4.36l-4.303-.9a12.729 12.729 0 0 1-.19-4.416Zm2.566-6.201 4.134.865a19.002 19.002 0 0 0-1.732 4.36l-4.566-.955a12.73 12.73 0 0 1 2.164-4.27Zm16.435 3.438c.193 1.44.213 3.025-.039 4.715l-5.066-1.06.947-4.525 4.158.87Zm-12.448 8.509a14.704 14.704 0 0 1-.059-4.387l5.069 1.06-.877 4.191-4.133-.864Zm1.263-12.862-3.688-.772c.477-.43.986-.829 1.531-1.189l.036-.023a12.735 12.735 0 0 1 5.87-2.034 20.304 20.304 0 0 0-3.75 4.018Zm-.514 20.41a12.875 12.875 0 0 1-6.43-6.722l3.983.834c.572 2.41 1.559 4.43 2.447 5.888Zm14.332-2.379a12.859 12.859 0 0 1-1.82 1.464l-.05.032a12.734 12.734 0 0 1-6.735 2.087c1.4-.98 3.117-2.437 4.61-4.419l3.995.836Zm-3.044-15.779-3.344-.698.985-4.706c.607.929 1.693 2.837 2.359 5.404ZM18.567 10.5c1.643-2.094 3.412-3.412 4.337-4.019l-.986 4.72-3.35-.7Zm-1.219 1.76 4.166.87-.947 4.526-5.07-1.06c.447-1.65 1.1-3.094 1.851-4.337Zm1.535 13.448-.904 4.318a19.542 19.542 0 0 1-2.34-4.997l3.244.679Zm1.93.404 3.237.677a19.517 19.517 0 0 1-4.14 3.638l.902-4.315Zm4.542-1.063-4.14-.867.878-4.192 5.058 1.059a14.813 14.813 0 0 1-1.796 4Zm8.703-4.57-4.563-.955c.261-1.668.293-3.241.158-4.69l4.127.863a12.72 12.72 0 0 1 .278 4.782ZM58.91 14.733c-.001-5.88-4.711-10.678-10.555-10.821v-.004h-.27c-5.967 0-10.822 4.855-10.822 10.823 0 4.045 2.429 8.615 4.878 12.202 2.455 3.598 4.961 6.25 5.168 6.468.202.212.483.334.777.334h.011c.296-.003.58-.129.78-.348h.001c.207-.226 2.709-2.977 5.16-6.62 1.227-1.822 2.443-3.87 3.353-5.94.909-2.067 1.519-4.169 1.519-6.094Zm-5.763 9.454c-1.861 2.967-3.966 5.557-5.075 6.859-1.114-1.267-3.21-3.779-5.063-6.712-1.946-3.081-3.6-6.592-3.6-9.602 0-4.785 3.893-8.677 8.676-8.677 4.784 0 8.676 3.893 8.676 8.677.001 2.846-1.66 6.339-3.614 9.455Z" fill="#524EB7" stroke="#524EB7" stroke-width=".4"/><path d="M48.086 8.685a4.046 4.046 0 0 0-4.042 4.04 4.046 4.046 0 0 0 4.042 4.042 4.046 4.046 0 0 0 4.041-4.041 4.046 4.046 0 0 0-4.041-4.04Zm0 5.937a1.898 1.898 0 0 1-1.896-1.895c0-1.045.85-1.895 1.896-1.895 1.045 0 1.895.85 1.895 1.895s-.85 1.895-1.895 1.895ZM57.716 48.69H7.806a1.073 1.073 0 0 0 0 2.146h49.91a1.073 1.073 0 1 0 0-2.146Z" fill="#524EB7" stroke="#524EB7" stroke-width=".4"/></symbol></svg>