<svg width="32" height="11" viewBox="0 0 32 11" fill="none" xmlns="http://www.w3.org/2000/svg">
<path d="M31.3001 5.50009L31.3001 5.50177C31.299 5.56577 31.2924 5.63521 31.2662 5.70665C31.2398 5.7785 31.1955 5.84707 31.1261 5.91362L27.0251 10.1499C26.8003 10.3831 26.4028 10.4054 26.159 10.1723C25.9291 9.95283 25.9112 9.55684 26.1362 9.32544L31.3001 5.50009ZM31.3001 5.50009C31.3001 5.42407 31.2771 5.3429 31.2468 5.27335C31.2165 5.20373 31.1744 5.13569 31.1273 5.08751M31.3001 5.50009L31.1273 5.08751M31.1273 5.08751C31.1272 5.08742 31.1272 5.08734 31.1271 5.08726L27.025 0.849593L27.024 0.848614C26.796 0.619483 26.4259 0.593724 26.1622 0.824413L26.1621 0.824438C25.9171 1.03897 25.914 1.446 26.1363 1.67454L29.2649 4.9014L1.20029 4.9014C0.864404 4.9014 0.587519 5.16683 0.587519 5.49993C0.587519 5.83326 0.86464 6.09846 1.20029 6.09846L29.2649 6.09846L26.1363 9.32532L31.1273 5.08751Z" fill="#524EB7" stroke="#524EB7" stroke-width="0.2"/>
</svg>
