<svg width="3529" height="2340" viewBox="0 0 3529 2340" fill="none" xmlns="http://www.w3.org/2000/svg">
<g opacity="0.5">
<path d="M3231.87 -140.006C3068.57 -221.944 2749.35 23.8705 2575.43 401.287C2401.51 778.704 1881.99 771.406 1743.01 773.003C1604.04 774.6 1416.01 927.293 1307.28 1211C1198.56 1494.7 903.832 1594.52 626.248 1728.21C348.665 1861.9 -108.73 2226.89 -214.759 2266.76" stroke="url(#paint0_linear_1068_262)" stroke-width="3" stroke-linecap="round"/>
<path d="M32.8363 2379.7C58.5366 2155.02 764.006 2115.58 822.329 1627.02C880.651 1138.45 1295.39 1056.7 1542.89 1110.64C1790.4 1164.57 2270.1 242.649 2454.43 411.446C2638.76 580.242 3020.42 -44.6694 3347.87 -320.306" stroke="url(#paint1_linear_1068_262)" stroke-width="4" stroke-linecap="round"/>
</g>
<defs>
<linearGradient id="paint0_linear_1068_262" x1="-37.0224" y1="2842.45" x2="3487.25" y2="-102.598" gradientUnits="userSpaceOnUse">
<stop stop-color="#1F94F3"/>
<stop offset="0.16984" stop-color="#795549"/>
<stop offset="0.375429" stop-color="#4AAE4E"/>
<stop offset="0.517746" stop-color="#F34334"/>
<stop offset="0.67022" stop-color="#9A26AF"/>
<stop offset="0.829093" stop-color="#01BBD4"/>
<stop offset="1" stop-color="#FD5621"/>
</linearGradient>
<linearGradient id="paint1_linear_1068_262" x1="3646.02" y1="164.442" x2="-390.699" y2="888.725" gradientUnits="userSpaceOnUse">
<stop stop-color="#F34334"/>
<stop offset="0.16984" stop-color="#FFE93B"/>
<stop offset="0.517746" stop-color="#5F7C8A"/>
<stop offset="0.829093" stop-color="#9A26AF"/>
<stop offset="1" stop-color="#019587"/>
</linearGradient>
</defs>
</svg>
